<svg xmlns:dc="http://purl.org/dc/elements/1.1/" xmlns:cc="http://creativecommons.org/ns#" xmlns:rdf="http://www.w3.org/1999/02/22-rdf-syntax-ns#" xmlns:svg="http://www.w3.org/2000/svg" xmlns="http://www.w3.org/2000/svg" xmlns:sodipodi="http://sodipodi.sourceforge.net/DTD/sodipodi-0.dtd" xmlns:inkscape="http://www.inkscape.org/namespaces/inkscape" viewBox="0 0 314.36 51.970003" aria-labelledby="bf-logo-footer" version="1.1" style="text-align:center" id="svg5" width="314.35999" height="51.970001" inkscape:version="0.92.1 r15371" xmlns:xlink="http://www.w3.org/1999/xlink">
 <metadata id="metadata11">
  <rdf:RDF>
   <cc:Work rdf:about="">
    <dc:format>
     image/svg+xml
    </dc:format>
    <dc:type rdf:resource="http://purl.org/dc/dcmitype/StillImage">
    </dc:type>
    <dc:title>
     BuzzFeed
    </dc:title>
   </cc:Work>
  </rdf:RDF>
 </metadata>
 <defs id="defs9">
 </defs>
 <sodipodi:namedview pagecolor="#ffffff" bordercolor="#666666" borderopacity="1" objecttolerance="10" gridtolerance="10" guidetolerance="10" inkscape:pageopacity="0" inkscape:pageshadow="2" inkscape:window-width="1371" inkscape:window-height="991" id="namedview7" showgrid="false" fit-margin-top="0" fit-margin-left="0" fit-margin-right="0" fit-margin-bottom="0" inkscape:zoom="3.8522713" inkscape:cx="157.18" inkscape:cy="25.985" inkscape:window-x="-8" inkscape:window-y="0" inkscape:window-maximized="0" inkscape:current-layer="svg5">
 </sodipodi:namedview>
 <title id="bf-logo-footer">
  BuzzFeed
 </title>
 <path id="path3683" d="m 31.11,26.73 c 2.45,0.19 4.58,1.23 6.4,3.11 1.81,1.89 2.72,4.48 2.72,7.78 0,4.05 -1.34,7.28 -4.03,9.69 -2.69,2.4 -6.55,3.61 -11.6,3.61 H 0 V 3.54 h 24.54 c 4.34,0 7.81,1.18 10.43,3.54 2.62,2.36 3.92,5.49 3.92,9.4 0,2.97 -0.82,5.33 -2.47,7.07 -1.65,1.74 -3.42,2.71 -5.3,2.9 v 0.28 z M 11.67,23.12 h 10.18 c 1.74,0 3.13,-0.48 4.17,-1.45 1.04,-0.97 1.56,-2.25 1.56,-3.85 0,-1.46 -0.51,-2.64 -1.52,-3.54 -1.01,-0.9 -2.27,-1.34 -3.78,-1.34 H 11.67 Z m 10.89,18.39 c 1.84,0 3.26,-0.47 4.28,-1.41 1.01,-0.94 1.52,-2.24 1.52,-3.89 0,-1.56 -0.52,-2.79 -1.56,-3.71 -1.04,-0.92 -2.38,-1.38 -4.03,-1.38 h -11.1 v 10.39 z m 58.179996,9.4 h -11.31 v -3.39 c -2.83,2.97 -6.46,4.45 -10.889996,4.45 -4.15,0 -7.48,-1.36 -10.01,-4.07 -2.52,-2.71 -3.78,-6.28 -3.78,-10.71 V 15.42 h 11.24 v 19.37 c 0,2.07 0.57,3.76 1.7,5.06 1.13,1.3 2.589996,1.94 4.379996,1.94 2.31,0 4.11,-0.81 5.41,-2.44 1.3,-1.63 1.94,-4.11 1.94,-7.46 V 15.42 h 11.31 v 35.49 z m 34.840004,0 H 85.629996 v -2.13 l 14.08,-24.38 h -13.73 V 15.42 H 115.41 v 2.13 l -14.08,24.38 h 14.25 z m 34.84,0 H 120.47 V 48.78 L 134.55,24.4 h -13.74 v -8.98 h 29.43 v 2.13 l -14.08,24.38 h 14.25 v 8.98 z M 167.24,23.76 H 187.7 V 33.94 H 167.24 V 50.91 H 155.57 V 3.54 h 34.01 v 10.25 h -22.34 z m 103.35,12.3 h -26.02 c 0.67,4.4 3.96,6.86 8.94,6.86 3.92,0 7.79,-1.54 10.69,-3.77 l 4.34,7.52 c -3.97,3.41 -9.12,5.3 -15.03,5.3 -11.9,0 -20.04,-7.25 -20.04,-18.81 0,-5.47 1.82,-9.97 5.44,-13.51 3.63,-3.54 8.08,-5.3 13.36,-5.3 5.14,0 9.45,1.72 12.94,5.16 3.49,3.44 5.28,7.99 5.37,13.65 v 2.9 z M 247.68,25.03 c -1.41,0.99 -2.38,2.36 -2.9,4.1 h 14.64 c -0.52,-1.84 -1.41,-3.23 -2.69,-4.17 -1.27,-0.94 -2.76,-1.41 -4.45,-1.41 -1.65,0 -3.18,0.49 -4.6,1.48 z M 229.22,36.06 H 203.2 c 0.67,4.4 3.96,6.86 8.94,6.86 3.92,0 7.79,-1.54 10.69,-3.77 l 4.34,7.52 c -3.97,3.41 -9.12,5.3 -15.03,5.3 -11.9,0 -20.04,-7.25 -20.04,-18.81 0,-5.47 1.82,-9.97 5.44,-13.51 3.63,-3.54 8.08,-5.3 13.36,-5.3 5.14,0 9.45,1.72 12.94,5.16 3.49,3.44 5.28,7.99 5.37,13.65 v 2.9 z M 206.31,25.03 c -1.41,0.99 -2.38,2.36 -2.9,4.1 h 14.64 c -0.52,-1.84 -1.41,-3.23 -2.69,-4.17 -1.27,-0.94 -2.76,-1.41 -4.45,-1.41 -1.66,0 -3.19,0.49 -4.6,1.48 z m 108.05,25.88 h -11.31 v -2.83 c -2.88,2.59 -6.55,3.89 -11.03,3.89 -4.81,0 -8.9,-1.76 -12.27,-5.27 -3.37,-3.51 -5.06,-8.03 -5.06,-13.54 0,-5.47 1.69,-9.97 5.06,-13.51 3.37,-3.54 7.46,-5.3 12.27,-5.3 4.48,0 8.16,1.3 11.03,3.89 V 0 h 11.31 z M 300.47,39.78 c 1.72,-1.72 2.58,-3.92 2.58,-6.61 0,-2.64 -0.86,-4.83 -2.58,-6.58 -1.72,-1.74 -3.76,-2.62 -6.12,-2.62 -2.5,0 -4.55,0.86 -6.15,2.58 -1.6,1.72 -2.4,3.92 -2.4,6.61 0,2.73 0.8,4.95 2.4,6.65 1.6,1.7 3.65,2.55 6.15,2.55 2.36,0 4.4,-0.86 6.12,-2.58 z" inkscape:connector-curvature="0" style="fill:#ee3322;fill-opacity:0.99607843">
 </path>
</svg>