<svg version="1.1" id="Layer_1" xmlns="http://www.w3.org/2000/svg" xmlns:xlink="http://www.w3.org/1999/xlink" x="0px" y="0px" viewBox="0 0 335.1 64" style="enable-background:new 0 0 335.1 64;" xml:space="preserve">
 <style type="text/css">
  .st0{clip-path:url(#SVGID_2_);fill:#005DA6;}
	.st1{clip-path:url(#SVGID_2_);}
 </style>
 <g>
  <defs>
   <rect id="SVGID_1_" width="335.1" height="64">
   </rect>
  </defs>
  <clipPath id="SVGID_2_">
   <use href="#SVGID_1_" style="overflow:visible;">
   </use>
  </clipPath>
  <path class="st0" d="M132.2,2.6c-1.3-1.3-3.2-2-5.2-2c-2,0-3.7,0.7-5,1.9l-0.2,0.2c-1.3,1.3-2.2,3-2.2,4.9c0,1.9,0.8,3.5,2,4.8
		l0.2,0.2c1.3,1.3,3.2,2,5.2,2c2,0,3.9-0.8,5.2-2l0,0c1.3-1.3,2.1-3,2.1-5C134.3,5.6,133.5,3.8,132.2,2.6">
  </path>
  <rect y="0.5" class="st1" width="15" height="62.1">
  </rect>
  <path class="st1" d="M20.3,62.7h14.9v-25c0.2-3.7,3-6.5,7-6.5c4.4,0,7,3.1,7,7v24.4h14.9V37.1c0-11.7-7-19.1-18.1-19.1
		c-6.6,0-10.1,2.1-13.7,7h-0.7l-2.4-5.9h-9V62.7z">
  </path>
  <rect x="119.4" y="19.2" class="st1" width="14.9" height="43.5">
  </rect>
  <polygon class="st0" points="231.7,62.7 236.4,62.7 256.1,0.5 250.1,0.5 234.4,53.4 219.9,0.5 214.1,0.5 199.6,53.4 183.9,0.5 
		177.8,0.5 197.6,62.7 202.4,62.7 217,9.7 	">
  </polygon>
  <path class="st0" d="M264,13.5c2,0,3.6-1.5,3.6-3.5c0-2.1-1.6-3.7-3.6-3.7c-2,0-3.7,1.6-3.7,3.7C260.3,12,261.9,13.5,264,13.5">
  </path>
  <rect x="261.1" y="19.2" class="st0" width="5.8" height="43.5">
  </rect>
  <path class="st0" d="M295.3,19.1H293c-7,0-11.3,4.6-12.8,8.2h-0.3l-0.6-8.1h-4.1v43.5h5.8V36.6c0.2-6.9,5.2-12.7,12.2-12.7h2.2
		V19.1z">
  </path>
  <path class="st1" d="M99.5,23.1h-0.6c0,0-2.5-5-10.8-5c-11.3,0-19.7,9.3-19.7,22.9c0,14,8.6,22.7,20.2,22.7c9.8,0,13-6.6,13-6.6
		h0.6l2.4,5.6h9.7V0H99.5V23.1z M91.8,51.5c-5.1,0-8.4-4.5-8.4-10.7c0-6.2,3.3-10.5,8.4-10.5c5.3,0,8.5,4,8.5,10.5
		C100.3,47.2,97.1,51.5,91.8,51.5">
  </path>
  <path class="st1" d="M161,18.1c-13,0-22.2,9.7-22.2,22.8c0,12.8,8.8,23.1,23.9,23.1c11.3,0,16.8-5.4,16.8-5.4l-5.1-9.6
		c0,0-4.3,3.3-10.7,3.3c-6.2,0-9.7-2.5-10.6-8.4h28.4c0,0,0.1-2.6,0.1-4.1C181.7,26.3,173.8,18.1,161,18.1 M153.5,35.8
		c0.9-4.7,3.6-6.9,7.1-6.9c4.2,0,6.6,2.8,6.8,6.9H153.5z">
  </path>
  <path class="st0" d="M335.1,41v-1.5c0-12.2-6.7-21.4-19.1-21.4c-12,0-20.2,9.3-20.2,23c0,13.7,8.5,22.7,21.6,22.7
		c10.5,0,15.3-5,15.3-5l-2.3-4.2c0,0-4.5,4.1-12.7,4.1c-9,0-16.1-6.2-16.1-17.6V41H335.1z M316.1,23.1c7.8,0,12.2,5,13,13.2h-27
		C303.5,27.4,308.7,23.1,316.1,23.1">
  </path>
 </g>
</svg>