<svg
   xmlns="http://www.w3.org/2000/svg"
   width="512.09302"
   height="54.023998"
   viewBox="0 0 512.09302 54.023998">
  <!-- Generator: Sketch 51.3 (57544) - http://www.bohemiancoding.com/sketch -->
  <title
     id="title32">letterboxd-logo-h-pos-rgb</title>
  <desc
     id="desc34">Created with Sketch.</desc>
  <defs
     id="defs36" />
  <g
     id="letterboxd-logo-h-pos-rgb"
     stroke="none"
     stroke-width="1"
     fill="none"
     fill-rule="evenodd"
     transform="matrix(1.1672184,0,0,1.1672184,-36.18377,-35.85158)">
    <g
       id="Horizontal-Lockup"
       transform="translate(31,30)">
      <g
         id="Dots"
         transform="translate(0,11)">
        <ellipse
           id="Blue"
           fill="#40bcf4"
           cx="79.210007"
           cy="18"
           rx="18.027105"
           ry="18" />
        <ellipse
           id="Green"
           fill="#00e054"
           cx="48.618557"
           cy="18"
           rx="18.027105"
           ry="18" />
        <ellipse
           id="Orange"
           fill="#ff8000"
           cx="18.027105"
           cy="18"
           rx="18.027105"
           ry="18" />
        <path
           d="M 33.322831,27.530513 C 31.591899,24.766696 30.591451,21.500006 30.591451,18 c 0,-3.500006 1.000448,-6.766696 2.73138,-9.5305134 1.730932,2.7638174 2.73138,6.0305074 2.73138,9.5305134 0,3.500006 -1.000448,6.766696 -2.73138,9.530513 z"
           id="Overlap"
           fill="#556677" />
        <path
           d="m 63.914282,8.4694866 c 1.730932,2.7638174 2.73138,6.0305074 2.73138,9.5305134 0,3.500006 -1.000448,6.766696 -2.73138,9.530513 C 62.18335,24.766696 61.182903,21.500006 61.182903,18 c 0,-3.500006 1.000447,-6.766696 2.731379,-9.5305134 z"
           id="path42"
           fill="#556677" />
      </g>
      <path
         d="m 210.04403,11.849025 c 1.27722,0 2.14802,-0.117035 3.30865,-0.351778 2.14802,-0.292589 2.9602,-1.230216 3.30865,-4.101618 0.17389,-1.4064419 0.28982,-2.6373309 0.34846,-4.0437728 h 8.7067 v 8.4971688 h 8.01045 v 9.434797 h -8.01045 v 8.144718 c 0,5.859839 0.8708,6.504878 5.86243,6.504878 h 2.14802 v 9.902939 h -5.34075 c -10.15781,0 -12.65363,-3.691322 -12.65363,-14.297817 V 21.283822 h -2.82279 -11.19918 v 8.144718 c 0,5.859839 0.87013,6.504878 5.86176,6.504878 h 2.14803 v 9.902939 h -5.34075 c -10.15782,0 -12.65297,-3.691322 -12.65297,-14.297817 V 21.283822 h -5.68853 v -8.848947 c 1.27655,0 2.14736,-0.117036 3.30798,-0.351779 2.14803,-0.292588 2.96087,-1.230216 3.30866,-4.1016177 0.17456,-1.4064419 0.29049,-3.2231802 0.34778,-4.6296221 h 8.70804 V 11.849025 Z M 119,3.8206702 h 10.91269 V 35.347569 h 17.47137 V 45.836357 H 119 Z M 167.46477,46.7154 c -11.6669,0 -17.12292,-6.562723 -17.12292,-17.052184 v -0.996145 c 0,-10.899084 6.79121,-17.520997 17.29681,-17.520997 11.90009,0 16.94968,7.793611 16.94968,16.993665 v 3.80903 h -23.74021 c 0.52168,4.101617 2.84426,6.328652 6.90713,6.328652 2.96019,0 4.58587,-1.289407 5.39804,-3.222508 h 11.20318 C 182.49895,42.203486 177.27479,46.7154 167.46477,46.7154 Z m -6.61664,-21.447062 h 13.29257 c -0.46505,-3.80903 -2.43785,-6.036064 -6.38544,-6.036064 -3.94694,0 -6.21089,2.051481 -6.90713,6.036064 z m 92.5543,21.447062 c -11.6669,0 -17.12357,-6.562723 -17.12357,-17.052184 v -0.996145 c 0,-10.899084 6.7912,-17.520997 17.29747,-17.520997 11.89942,0 16.94901,7.793611 16.94901,16.993665 v 3.80903 h -23.74021 c 0.52301,4.101617 2.84427,6.328652 6.90713,6.328652 2.96086,0 4.58587,-1.289407 5.39871,-3.222508 h 11.20251 C 268.43595,42.203486 263.21179,46.7154 253.40243,46.7154 Z m -6.6173,-21.447062 h 13.29257 c -0.46438,-3.80903 -2.43785,-6.036064 -6.38544,-6.036064 -3.94693,0 -6.21022,2.051481 -6.90713,6.036064 z m 28.0919,20.568019 V 11.849025 h 8.47484 l 1.45112,6.97302 c 1.10332,-5.273317 4.52724,-7.441834 10.56423,-7.441834 h 1.9155 v 11.192345 h -3.94626 c -6.15426,0 -7.66267,2.168517 -7.66267,8.203909 v 15.059892 z m 36.21908,-5.683411 -0.8135,5.683613 h -9.22905 V 0.71539982 h 10.44831 V 17.298769 c 1.79957,-3.867547 5.16619,-6.152427 9.86732,-6.152427 7.54608,0.05785 13.11935,5.273317 13.11935,16.758923 v 1.054663 c 0,11.544124 -5.05092,17.755068 -13.3512,17.755068 -5.10823,0 -8.41622,-2.57814 -10.04123,-6.56205 z m 12.88616,-11.251535 v -0.820593 c 0,-5.391024 -2.55444,-8.0862 -6.21155,-8.0862 -3.831,0 -6.44275,2.988437 -6.44275,7.969165 v 0.762074 c 0,5.918357 2.55378,8.672723 6.38545,8.672723 3.88897,0 6.26885,-2.519623 6.26885,-8.497169 z m 13.75283,0.762074 V 28.60815 c 0,-11.544124 7.08235,-17.461808 17.00698,-17.461808 10.10052,0 16.95035,6.09391 16.95035,17.461808 v 1.055335 c 0,11.309381 -6.7339,17.051511 -17.00765,17.051511 -10.91269,0 -16.94968,-5.74213 -16.94968,-17.051511 z m 23.45106,-0.117708 V 28.60815 c 0,-5.566578 -2.32192,-8.437979 -6.38545,-8.437979 -3.9476,0 -6.55934,2.754366 -6.55934,8.437979 v 0.937627 c 0,5.215472 2.61174,7.969838 6.50071,7.969838 3.88963,0 6.44408,-2.636658 6.44408,-7.969838 z m 27.33622,6.680835 -6.15225,9.609677 h -12.42244 l 12.42244,-17.69655 -11.26115,-16.290781 h 11.95739 l 5.51465,8.614205 5.51331,-8.614205 h 11.90009 l -11.20319,16.173746 11.95739,17.813585 h -12.07398 z m 40.22385,3.691658 c -1.68364,3.984582 -5.05026,6.563395 -10.21578,6.563395 -8.12705,0 -13.23528,-5.919028 -13.23528,-17.580187 V 27.90466 c 0,-11.426416 5.57328,-16.700405 13.29258,-16.700405 4.87636,0 8.06909,2.051481 9.75206,5.508732 V 0.71546708 h 10.38968 V 45.836626 h -8.99652 z m -0.29049,-11.07531 v -0.762075 c 0,-5.156281 -2.49581,-8.0862 -6.26818,-8.0862 -3.9476,0 -6.26885,2.753693 -6.26885,8.0862 v 0.762075 c 0,6.094582 2.49515,8.555687 6.09362,8.555687 3.88964,0 6.44341,-2.812884 6.44341,-8.555687 z"
         id="Letterboxd"
         fill="#556677" />
    </g>
  </g>
</svg>
