<svg height="88" viewBox="0 0 701 88" width="701" xmlns="http://www.w3.org/2000/svg"><g fill="#000" fill-rule="evenodd"><path d="M627.952 63.239c-2.798 2.36-8.448 7.37-11.069 9.905-2.448-2.186-7.536-6.178-10.682-8.45v-.387c.908-.307 1.552-1.148 1.552-3.205V36.826c-2.532-1.834-7.292-4.757-10-6.504l-2.138 2.039v29.908l4.274 3.204s-5.923 5.136-8.544 7.671c-2.36-2.273-5.886-4.924-9.03-7.285v-.29c.908-.305 1.552-1.244 1.552-3.3V36.826c-2.535-1.834-7.195-4.757-9.904-6.504l-2.621 2.233v29.714l4.273 3.204s-5.757 4.799-8.546 7.574c-2.622-2.36-5.538-4.51-9.03-7.188v-.193c.98-.401 1.552-1.616 1.552-3.011V33.428l-3.495-3.106-2.719 2.33-1.068-1.165c2.622-2.185 7.311-6.42 11.069-10.002l7.964 7.186v2.039l10.778-9.225c3.409 2.447 13.495 8.837 13.495 8.837l10.392-8.837c3.321 2.622 10.953 7.36 15.147 9.808v.388c-1.397.374-1.553 2.145-1.553 3.106v26.315l4.467 3.399 2.621-2.33 1.263 1.068M552.989 11.969c-2.796 3.933-5.068 5.73-9.613 5.73-3.059 0-5.224-1.4-7.671-4.37l-2.525 2.427-1.067-1.36 10.972-9.807c3.058 6.205 6.739 7.079 9.71 6.992l.194.388M555.806 63.239c-3.06 2.62-8.185 7.129-10.975 9.905-2.622-2.36-7.09-5.772-10.583-8.45v-.29c.982-.402 1.553-1.614 1.553-3.011V33.428l-3.495-3.106-2.718 2.33-1.07-1.165c2.623-2.185 7.313-6.42 11.07-10.002l9.517 8.448v.389c-1.136.349-1.553 1.079-1.553 3.69v27.09l4.563 3.205 2.525-2.233 1.166 1.165M368.883 63.239c-3.059 2.62-8.181 7.129-10.973 9.905-2.622-2.36-7.09-5.772-10.583-8.45v-.29c.981-.402 1.553-1.614 1.553-3.011V16.047l-3.495-3.107-2.72 2.33-1.067-1.165c2.622-2.185 6.728-6.322 10.486-9.904l10.098 8.448v.388c-1.135.35-1.553 1.08-1.553 3.69v44.375l4.563 3.205 2.622-2.233 1.069 1.165M264.207 63.239c-2.796 2.36-8.35 7.37-10.972 9.905-2.447-2.186-7.439-6.178-10.585-8.45v-.387c.91-.307 1.554-1.148 1.554-3.205V36.826c-2.535-1.834-7.196-4.757-9.905-6.504-.553.41-2.054 1.72-2.621 2.233v29.714l4.272 3.204s-5.851 4.799-8.642 7.574c-2.622-2.36-5.44-4.51-8.933-7.188v-.193c.982-.401 1.553-1.616 1.553-3.011V33.428l-3.593-3.204-2.621 2.33-1.166-1.164c2.622-2.185 7.41-6.322 11.167-9.905l7.963 7.186v2.039l10.778-9.225c3.32 2.622 10.857 7.36 15.051 9.808v.388c-1.397.374-1.553 2.145-1.553 3.106v26.315l4.563 3.302 2.525-2.33 1.165 1.165M687.572 65.959v-14.08c-1.659-.786-4.183-1.879-5.825-2.72L668.25 63.142l.387.097c2.05-1.117 3.864-2.526 8.06-2.526 4.283 0 8.633 3.102 10.68 5.343l.195-.097zm13.205-5.44c-6.815 2.972-16.671 8.34-21.458 12.625-2.448-2.36-5.653-4.564-9.906-4.564-3.984 0-5.826 1.46-5.826 2.815 0 .844 1.652.73 1.652 1.942 0 .56-.421 1.166-1.166 1.166-.932 0-2.135-1.327-2.135-3.01 0-3.146 1.625-5.872 6.602-11.07l8.74-9.127c-3.61-1.845-8.823-4.166-11.751-5.439v-.388c.852-.242 1.458-1.13 1.458-2.138v-7.476c0-.825-.41-2.077-1.458-2.427v-.388c7.341-2.621 16.714-7.894 22.043-11.652 1.194 1.328 4.305 4.175 7.671 4.175 2.836 0 3.495-1.437 3.495-2.427 0-.562-1.066-.874-1.066-1.748 0-.747.409-1.068.97-1.068.836 0 1.555.838 1.555 2.427 0 4.72-4.469 10.973-11.558 10.973-4.662 0-7.524-2.379-9.71-5.438l-.193.097v11.749l6.409 3.107 2.914-3.01c3.024 1.916 9.377 5.271 12.718 6.7v.292c-.654.276-1.552 1.028-1.552 2.427v8.254c0 1.183.941 1.972 1.552 2.232v.39zM651.45 42.361c-2.447-3.407-6.807-9.573-9.515-13.593l-.293.097v19.71l9.809-6.214zm10.972-4.952l-20.78 12.915v8.836c2.622 1.136 8.468 3.992 11.265 5.826l4.467-4.563c1.236-1.263.826-3.3 3.01-3.3.611 0 1.067.368 1.067 1.065 0 .746-.513 1.099-.872 1.459l-13.595 13.497c-4.633-2.974-14.012-7.302-18.643-9.227v-.386c.747-.281 1.65-.796 1.65-2.719V36.244c0-2.01-.8-2.653-1.65-2.816v-.388c6.992-2.272 17.654-7.972 22.721-11.555 3.497 5.244 8.04 11.73 11.36 15.924z"></path><path d="M518.323 63.239V18.863c-.523.038-1.405.097-1.942.097-3.003 0-8.244-1.175-11.651-2.136-10.14 1.835-21.946 10.418-21.946 26.507 0 13.8 9.835 22.628 23.789 22.628 4.721 0 8.852-.996 11.75-2.72zm12.138-56.222c0 7.038-5.176 10.603-10.681 11.652v43.986c7.08-3.93 8.546-8.252 8.546-10.292 0-.443-.875-1.048-.875-1.846 0-.62.715-1.163 1.262-1.163.798 0 1.165.727 1.165 2.039 0 10.225-9.789 23.984-30.585 23.984-15.606 0-28.842-12.254-28.842-28.063 0-22.547 18.936-30.384 32.046-31.17-4.806-1.048-12.543-2.718-18.936-2.718-7.428 0-13.497 4.418-13.497 8.35 0 1.485 1.166 1.768 1.166 2.816 0 .578-.273 1.263-1.07 1.263-1.222 0-1.649-1.279-1.649-2.234 0-8.565 5.54-20.78 18.448-20.78 13.086 0 23.021 4.758 33.209 4.758 6.737 0 8.807-2.379 8.545-6.311l1.068.485c.261.612.68 2.619.68 5.244zM429.863 65.959v-14.08c-1.66-.786-4.185-1.879-5.824-2.72L410.54 63.142l.389.097c2.051-1.117 3.865-2.526 8.06-2.526 4.28 0 8.631 3.102 10.68 5.343l.194-.097zm13.207-5.44c-6.819 2.972-16.675 8.34-21.459 12.625-2.45-2.36-5.654-4.564-9.906-4.564-3.987 0-5.826 1.46-5.826 2.815 0 .844 1.65.73 1.65 1.942 0 .56-.42 1.166-1.163 1.166-.933 0-2.139-1.327-2.139-3.01 0-3.146 1.627-5.872 6.606-11.07l8.737-9.127c-3.61-1.845-8.82-4.166-11.749-5.439v-.388c.85-.242 1.456-1.13 1.456-2.138v-7.476c0-.825-.407-2.077-1.456-2.427v-.388c7.342-2.621 16.711-7.894 22.042-11.652 1.195 1.328 4.305 4.175 7.671 4.175 2.837 0 3.495-1.437 3.495-2.427 0-.562-1.067-.874-1.067-1.748 0-.747.411-1.068.97-1.068.838 0 1.554.838 1.554 2.427 0 4.72-4.468 10.973-11.554 10.973-4.665 0-7.526-2.379-9.71-5.438l-.194.097v11.749l6.407 3.107 2.913-3.01c3.026 1.916 9.379 5.271 12.722 6.7v.292c-.657.276-1.555 1.028-1.555 2.427v8.254c0 1.183.942 1.972 1.555 2.232v.39zM394.032 42.361c-2.446-3.407-6.806-9.573-9.517-13.593l-.29.097v19.71l9.807-6.214zm10.875-4.952l-20.682 12.915v8.836c2.622 1.136 8.467 3.992 11.265 5.826l4.467-4.563c1.234-1.263.825-3.3 3.008-3.3.613 0 .972.368.972 1.065 0 .746-.516 1.099-.875 1.459l-13.497 13.497c-4.63-2.974-14.01-7.302-18.643-9.227v-.386c.749-.281 1.555-.796 1.555-2.719V36.244c0-2.01-.704-2.653-1.555-2.816v-.388c6.991-2.272 17.654-7.972 22.722-11.555 3.495 5.244 7.942 11.73 11.263 15.924zM334.8 42.361c-2.446-3.407-6.807-9.573-9.516-13.593l-.194.097v19.71l9.71-6.214zm10.974-4.952L325.09 50.324v8.836c2.622 1.136 8.467 3.992 11.264 5.826l4.467-4.563c1.236-1.263.728-3.3 2.913-3.3.612 0 1.068.368 1.068 1.065 0 .746-.515 1.099-.874 1.459l-13.497 13.497c-4.632-2.974-14.012-7.302-18.644-9.227v-.386c.749-.281 1.554-.796 1.554-2.719V36.244c0-2.01-.704-2.653-1.554-2.816v-.388c6.991-2.272 17.654-7.972 22.722-11.555 3.496 5.244 7.944 11.73 11.265 15.924zM292.172 64.694V37.216c-3.408-1.923-8.962-5.798-12.72-9.03l-.195.096v30.685c3.41 1.573 9.022 4.873 11.556 6.796l1.36-1.069zm16.41 4.566c-.28 11.096-5.754 18.74-16.119 18.74-8.109 0-14.092-4.174-21.46-4.174-4.29 0-6.652 1.32-7.864 2.815l-.485-.29c.437-8.043 6.126-12.528 13.399-12.528 8.017 0 13.85 5.146 22.334 5.146 5.418 0 8.215-2.844 8.74-5.729l-.098-.193c-1.136.697-2.573 1.553-4.758 1.553-4.37 0-9.118-3.02-9.905-8.351-2.086 1.454-6.783 5.095-8.836 6.895-5.121-3.31-13.365-7.436-17.38-9.227v-.386c.836-.275 1.359-1.312 1.359-2.332V36.147c0-1.488-.532-2.532-1.554-2.72v-.387c7.428-2.71 16.983-7.73 22.139-11.75 4.47 3.537 12.598 8.524 17.381 11.265v.485c-1.049.437-1.553 1.137-1.553 3.496v26.995c0 3.464.31 5.825 2.816 5.825.398 0 .912-.34 1.262-.776l.583.68zM190.992 44.4l-9.03-27.576-9.808 27.577h18.838zM217.21 62.56l-11.458 10.585c-3.32-2.36-6.194-4.273-10.39-6.895v-.486c.952-.346 1.446-1.3 1.457-2.426.005-.496-.029-1.033-.195-1.555l-3.398-10.681H169.63l-3.108 8.933c4.856 0 7.732.753 10.1 1.748l2.038-3.787 1.457.777-7.768 14.468c-3.18-1.81-6.714-3.204-10.779-3.204-4.794 0-8.425 1.247-10.196 2.914-.354.334-.888.245-.68-.486 1.922-6.729 6.755-11.861 14.178-12.334l16.41-45.442c-1.836-5.332-3.856-6.409-7.962-6.409-3.848 0-7.575 1.786-7.575 6.506 0 2.185 2.137 1.999 2.137 3.593 0 .558-.518 1.165-1.263 1.165-1.398 0-2.33-1.865-2.33-5.535 0-8.302 6.302-13.206 13.206-13.206 6.291 0 8.759 2.428 10.681 5.05.611-2.447 3.087-3.584 4.952-3.885l.194.292c-1.165 1.445-1.845 2.728-1.845 4.564 0 .953.706 3.115.97 3.884l17.674 51.075 3.204 2.04 2.719-2.525 1.165 1.262zM118.262 65.959v-14.08c-1.66-.786-4.087-1.879-5.728-2.72L98.939 63.142l.486.097c2.05-1.117 3.864-2.526 8.06-2.526 4.281 0 8.534 3.102 10.583 5.343l.194-.097zm13.206-5.44c-6.817 2.972-16.575 8.34-21.362 12.625-2.448-2.36-5.75-4.564-10.001-4.564-3.987 0-5.73 1.46-5.73 2.815 0 .844 1.651.73 1.651 1.942 0 .56-.518 1.166-1.262 1.166-.933 0-2.136-1.327-2.136-3.01 0-3.146 1.722-5.872 6.7-11.07l8.739-9.127c-3.609-1.845-8.92-4.166-11.847-5.439v-.388c.85-.242 1.554-1.13 1.554-2.138v-7.476c0-.825-.506-2.077-1.554-2.427v-.388c7.34-2.621 16.711-7.894 22.042-11.652 1.195 1.328 4.305 4.175 7.671 4.175 2.836 0 3.496-1.437 3.496-2.427 0-.562-.971-.874-.971-1.748 0-.747.313-1.068.874-1.068.836 0 1.65.838 1.65 2.427 0 4.72-4.564 10.973-11.652 10.973-4.664 0-7.524-2.379-9.71-5.438l-.194.097v11.749l6.505 3.107 2.914-3.01c3.025 1.916 9.282 5.271 12.623 6.7v.292c-.654.276-1.457 1.028-1.457 2.427v8.254c0 1.183.845 1.972 1.457 2.232v.39zM78.062 66.056v-28.84c-4.02-2.186-9.924-6.584-12.72-9.03l-.195.096v29.42c3.845 2.1 9.575 5.742 12.72 8.45l.195-.096zm13.303-5.536c-5.845 2.388-17.149 8.34-22.042 12.624-5.157-3.758-12.693-8.715-17.479-11.459v-.292c1.224-.436 1.554-1.33 1.554-2.815V36.536c0-2.027-.505-2.758-1.554-3.108v-.388c8.04-2.971 15.673-7.195 22.14-11.652 4.456 3.32 12.226 8.205 17.381 11.264v.388c-.932.375-1.553 1.33-1.553 2.815v21.848c0 1.575.591 2.167 1.553 2.427v.39zM30.287 57.51V16.63c-5.734-.627-8.658-4.819-10.583-7.089l-5.535 4.467c.03 6.219 1.851 11.647 3.98 16.605 1.948 4.532 4.08 10.401 4.08 14.467 0 6.696-3.7 10.925-12.527 19.227l.292.29c5.243-3.93 13.248-6.967 20.293-7.087zm20.975.678l-8.254 15.246c-4.49-3.13-11.655-5.05-17.77-5.05-12.06 0-20.382 2.149-24.663 4.856l-.486-.582c3.824-3.347 10.196-8.727 10.196-20.975 0-5.16-2.087-11.008-3.593-14.857-1.743-4.453-3.107-6.792-3.107-13.01 0-10.825 5.81-16.939 14.954-21.557l.776.874c-3.154 2.624-4.68 6.003-5.146 9.419L28.832.317c3.741 5.256 7.237 7.282 11.845 7.282 3.783 0 4.856-1.679 4.856-3.01 0-.96-1.262-1.097-1.262-2.039 0-.893.644-1.165 1.164-1.165 1.16 0 1.748 1.497 1.748 2.622 0 7.371-6.166 12.817-12.72 12.817-1.136 0-1.996.127-2.718 0V57.51c5.68 0 11.545 1.7 15.827 3.883l2.233-3.883 1.457.678z"></path><path d="M514.536 22.747c0 .611-.723 1.069-1.165 1.069-.754 0-1.397-1.457-3.495-1.457-3.086 0-5.633 2.641-5.633 5.73 0 8.127 7.962 11.413 7.962 20.682 0 7.772-7.58 12.279-15.437 13.303l-1.458-1.068c4.306-.561 6.311-2.047 6.311-7.285 0-7.077-7.282-12.838-7.282-21.166 0-6.738 6.303-11.944 14.953-11.944 1.684 0 3.36.515 4.272.971.526.261.972.64.972 1.165"></path></g></svg>