<svg class="peacock-color" viewBox="0 0 35 22" fill="none" xmlns="http://www.w3.org/2000/svg"><path d="M15.495 21.4447L5.67947 14.4912C3.18014 12.7175 0.710667 14.5258 0.184207 16.3918C-0.586487 19.149 1.14215 21.4447 3.85857 21.4447H15.495Z" fill="#FCCC12"></path><path d="M30.9411 21.4448C33.6575 21.4448 35.3861 19.1491 34.6154 16.3919C34.0917 14.523 31.6195 12.7147 29.1202 14.4913L19.3047 21.4448H30.9411Z" fill="#05AC3F"></path><path d="M24.8515 5.26217L19.8149 17.4877L18.3766 6.86282C18.1921 5.4179 20.5041 4.52961 20.5041 4.52961C20.2925 4.03066 19.5625 4.03931 19.5625 4.03931H17.9994H17.9967C17.747 1.42635 19.9804 -0.477137 22.3902 0.105445C24.762 0.670723 25.6195 3.40771 24.8515 5.26217Z" fill="#6E55DC"></path><path d="M16.7843 4.21235C17.1479 1.51286 14.8711 -0.4858 12.4098 0.108318C10.038 0.670712 9.18044 3.40769 9.94842 5.26503L14.9851 17.4906L16.7843 4.21235Z" fill="#EF1541"></path><path d="M14.5834 19.4951L9.75027 7.7858C8.61865 5.07189 5.62271 4.73445 3.96463 6.32646C2.80045 7.44836 1.89407 10.5026 4.50195 12.3542L14.5834 19.4951Z" fill="#FF7112"></path><path d="M30.2982 12.3542C32.9061 10.5055 31.9997 7.44836 30.8356 6.32646C29.1802 4.73445 26.1842 5.07189 25.0499 7.7858L20.2168 19.4951L30.2982 12.3542Z" fill="#069DE0"></path></svg>