<?xml version="1.0" encoding="UTF-8" standalone="no"?>
<!-- Created with Inkscape (http://www.inkscape.org/) -->

<svg
   version="1.1"
   id="svg1"
   width="1000"
   height="77.450584"
   viewBox="0 0 1000 77.450584"
   xml:space="preserve"
   xmlns="http://www.w3.org/2000/svg"
   xmlns:svg="http://www.w3.org/2000/svg"><defs
     id="defs1" /><g
     id="g20"
     transform="translate(-60.921072,-927.08643)"><path
       d="M 118.91505,1002.5698 82.177389,978.08731 c -9.347129,-6.2454 -18.597339,0.12454 -20.563673,6.70206 -2.894111,9.70711 3.586547,17.78043 13.750672,17.78043 z"
       fill="#fccc12"
       id="path1"
       style="fill:#fccc12;fill-opacity:1;stroke-width:3.22712" /><path
       d="m 176.78841,1002.5698 c 10.16413,0 16.63123,-8.08688 13.7507,-17.78043 -1.96625,-6.57747 -11.20257,-12.94746 -20.56376,-6.70206 l -36.73738,24.48249 z"
       fill="#05ac3f"
       id="path2"
       style="fill:#05ac40;fill-opacity:1;stroke-width:3.22712" /><path
       d="m 154.00633,945.60061 -18.84632,43.05223 -5.38668,-37.40238 c -0.69252,-5.08209 7.96223,-8.21165 7.96223,-8.21165 -0.78933,-1.75866 -3.51719,-1.73094 -3.51719,-1.73094 h -5.84364 -0.0166 c -0.9278,-9.19479 7.4223,-15.89701 16.43695,-13.84756 8.87642,1.9663 12.08904,11.60425 9.20851,18.1403 z"
       fill="#6e55dc"
       id="path3"
       style="fill:#6f55dc;fill-opacity:1;stroke-width:3.22712" /><path
       d="m 123.81349,941.90344 c 1.35732,-9.49941 -7.15898,-16.53403 -16.36758,-14.44302 -8.876419,1.98019 -12.089039,11.61814 -9.208844,18.15418 l 18.846654,43.05213 z"
       fill="#ef1541"
       id="path4"
       style="fill:#ef1540;fill-opacity:1;stroke-width:3.22712" /><path
       d="m 115.57956,995.71504 -18.085047,-41.2241 c -4.237261,-9.55485 -15.453805,-10.74578 -21.643677,-5.13753 -4.362014,3.94661 -7.740833,14.70633 2.007863,21.21444 z"
       fill="#ff7112"
       id="path5"
       style="fill:#ff7113;fill-opacity:1;stroke-width:3.22712" /><path
       d="m 174.38746,970.56785 c 9.74875,-6.50844 6.36996,-17.26789 2.00789,-21.22825 -6.1899,-5.59444 -17.40636,-4.4174 -21.6439,5.1374 l -18.08471,41.22415 z"
       fill="#069de0"
       id="path6"
       style="fill:#059de0;fill-opacity:1;stroke-width:3.22712" /></g><g
     id="g19"
     style="fill:#000000;fill-opacity:1"
     transform="translate(-60.921072,-927.08643)"><path
       d="m 424.96475,977.61614 c -7.26739,6.20378 -11.89506,9.70714 -22.37673,9.70714 H 402.146 c -14.42836,0 -23.36103,-11.20255 -23.36103,-21.57451 0,-11.89504 10.52361,-21.57446 23.44495,-21.57446 10.41065,0.0969 15.92258,5.67745 18.56878,8.37777 l 0.41601,0.41546 12.15653,-12.14435 c -1.35538,-1.35704 -11.72735,-13.72292 -31.01895,-13.72292 -22.21221,0 -40.65572,16.86634 -40.75289,38.56563 0,21.06205 17.71137,38.7731 40.54633,38.8702 17.18433,0 25.88143,-7.02092 33.9524,-13.93079 z"
       id="path7"
       style="fill:#000000;fill-opacity:1;stroke-width:3.22712" /><path
       d="m 354.91173,979.41657 c 0,20.00963 -16.02165,23.15323 -26.0473,23.15323 h -42.76139 v -73.55861 h 42.7198 c 13.09977,0 23.56849,7.43621 23.56849,21.38066 0,6.89609 -4.86031,10.70406 -8.55764,12.58745 6.09276,3.04634 11.07804,7.54688 11.07804,16.43727 z m -53.17469,-36.59932 v 13.91681 c 0,0 22.44678,0 25.21631,0 4.16809,0 8.73769,-1.73096 8.73769,-6.90997 0,-5.17896 -3.55885,-7.00684 -9.31924,-7.00684 -3.28198,0 -24.63476,0 -24.63476,0 z m 36.55766,36.59932 c 0,-7.06253 -5.88531,-8.89039 -11.60436,-8.89039 -5.13756,0 -24.9533,0 -24.9533,0 v 17.57262 c 0,0 20.89582,0 25.54868,0 4.65285,0 11.00898,-1.62005 11.00898,-8.68223 z"
       id="path8"
       style="fill:#000000;fill-opacity:1;stroke-width:3.22712" /><path
       d="m 203.44614,929.01119 h 17.25405 l 35.51916,47.58039 v -47.58039 h 16.17394 v 73.55861 h -17.25406 l -35.53304,-47.67746 v 47.67746 h -16.16005 z"
       id="path9"
       style="fill:#000000;fill-opacity:1;stroke-width:3.22712" /><path
       d="m 595.12764,987.10188 v 15.48142 h -62.52201 v -73.55834 h 61.62165 v 14.7477 h -45.96043 v 12.96135 h 39.35458 v 14.73387 h -39.35458 v 15.57853 z"
       id="path10"
       style="fill:#000000;fill-opacity:1;stroke-width:3.22712" /><path
       d="m 449.98526,929.01119 h 17.25535 l 35.51756,47.58039 v -47.58039 h 16.17424 v 73.55861 h -17.25533 l -35.53045,-47.67746 v 47.67746 h -16.16137 z"
       id="path11"
       style="fill:#000000;fill-opacity:1;stroke-width:3.22712" /><path
       d="m 687.85853,929.02496 -13.51511,47.9403 -13.9153,-47.9403 h -16.74217 l -13.9024,47.9403 -13.53126,-47.9403 h -15.28681 l 20.17583,73.55834 h 16.4518 l 14.47033,-46.33394 14.45747,46.33394 h 16.4647 l 20.17588,-73.55834 z"
       id="path12"
       style="fill:#000000;fill-opacity:1;stroke-width:3.22712" /><path
       d="m 758.85816,961.1098 c -12.36627,-5.24804 -34.36874,-1.25984 -34.21704,-11.31335 0.0552,-3.89111 5.73457,-7.24224 14.83178,-7.31152 10.23319,-0.0828 23.19315,5.35904 23.19315,5.35904 l 8.23882,-13.08595 c 0,0 -16.75506,-7.67159 -31.15446,-7.67159 -21.96368,0 -32.32266,9.67945 -32.32266,21.75455 0,12.39374 6.93822,17.3096 10.70427,19.13743 12.2146,5.94045 25.89433,4.32046 33.27797,8.00384 8.07097,4.0297 4.87293,13.66748 -11.65958,12.31044 -12.15979,-0.99683 -19.34646,-3.42037 -28.09844,-8.58541 l -9.00037,12.629 c 17.01976,10.51032 33.42639,12.17202 37.11176,12.19972 12.85031,0.069 33.69099,-3.3371 33.37152,-24.46857 -0.13889,-8.64089 -4.32112,-14.73398 -14.27672,-18.95763 z"
       id="path13"
       style="fill:#000000;fill-opacity:1;stroke-width:3.22712" /><path
       d="m 875.29795,977.61614 c -7.26739,6.20378 -11.89507,9.70714 -22.37673,9.70714 h -0.44202 c -14.42837,0 -23.36103,-11.20255 -23.36103,-21.57451 0,-11.89504 10.52361,-21.57446 23.44494,-21.57446 10.41065,0.0969 15.92258,5.67745 18.56879,8.37777 l 0.41601,0.41546 12.15652,-12.14435 c -1.35538,-1.35704 -11.72734,-13.72292 -31.01894,-13.72292 -22.21222,0 -40.65573,16.86634 -40.7529,38.56563 0,21.06205 17.71137,38.7731 40.54633,38.8702 17.18433,0 25.88144,-7.02092 33.9524,-13.93079 z"
       id="path7-1"
       style="fill:#000000;fill-opacity:1;stroke-width:3.22712" /><path
       id="path7-1-8-8-5-3"
       style="fill:#000000;fill-opacity:1;stroke-width:3.24562"
       d="m 932.4634,927.10789 c -22.41152,0 -41.25406,16.90183 -41.35219,38.56044 0,21.06219 18.17247,38.86747 41.27041,38.86747 h 0.16374 c 23.09774,-0.097 40.75264,-17.80528 40.75264,-38.86747 -0.0977,-21.65861 -18.42293,-38.56044 -40.83443,-38.56044 z m 0,17.06916 c 13.07003,0 23.4545,9.67732 23.4545,21.57219 0,10.37204 -8.77828,21.57219 -23.37268,21.57219 h -0.16402 c -14.59442,0 -23.89044,-11.20015 -23.89044,-21.57219 0,-11.89487 10.90218,-21.57219 23.97223,-21.57219 z" /><path
       d="m 1043.66,929.02496 -21.3988,39.78829 -21.4406,-39.78829 h -17.21955 v 73.55834 h 16.17462 v -41.83619 l 17.47003,31.05321 h 10.0307 l 17.47,-31.05321 v 41.83619 h 16.1747 v -73.55834 z"
       id="path7-6"
       style="fill:#000000;fill-opacity:1;stroke-width:2.71414" /><circle
       style="fill:#000000;fill-opacity:1;stroke-width:11.1489;stroke-linecap:square;paint-order:markers stroke fill"
       id="path19"
       cx="795.38818"
       cy="994.57916"
       r="9.5863543" /></g></svg>
