<?xml version="1.0" encoding="utf-8"?>
<!-- Generator: Adobe Illustrator 28.1.0, SVG Export Plug-In . SVG Version: 6.00 Build 0)  -->
<svg version="1.1" id="Layer_1" xmlns="http://www.w3.org/2000/svg" xmlns:xlink="http://www.w3.org/1999/xlink" x="0px" y="0px"
	 viewBox="0 0 3000 1000" style="enable-background:new 0 0 3000 1000;" xml:space="preserve">
<style type="text/css">
	.st0{fill:#D62021;}
	.st1{fill:#237BBD;}
	.st2{fill:#FFFFFF;}
</style>
<g>
	<path class="st0" d="M1000,0H0v1000h1000V0z"/>
	<path class="st1" d="M3000,0H2000v1000h1000V0z"/>
	<path class="st2" d="M554.7,212.2c-72,0.2-144.2,26-165.2,97.9l-7.4-85.1H269v549.4h127.3V436c0-58.7,49.5-109.8,110.8-110.2
		c63.1-0.7,110.7,45.9,110.7,115.6v333.1h129.1V443.2C745.1,312.3,700.4,211.8,554.7,212.2L554.7,212.2z"/>
	<path class="st2" d="M2666.7,225.2c-131.2-36.6-198.6,32.1-212.9,85l-7.5-85.2h-112.9V774h127.3V442.8
		c0-80.4,71.4-122.2,127.5-116.2c45.1,4.9,62.6,18.5,78.5,27.2V225.2z"/>
	<path d="M2000,0H1000v1000h1000V0z"/>
	<path class="st2" d="M1527.7,211.9c-75.1,0-140.3,47.5-155.8,98.3l-7.6-85.3h-112.8v644.6h127.1V697c10,40.8,69.6,81.6,152.6,81.6
		c180.1,0,248.8-139.6,248.8-280C1779.9,368.2,1708.9,211.8,1527.7,211.9L1527.7,211.9z M1523.7,663.4c-97.8,0-141.6-82-141.6-164
		c0-82.1,46.8-169.3,141.6-169.3c94.8,0,140.6,86.3,140.6,169.3C1664.3,582.4,1620.5,663.4,1523.7,663.4z"/>
</g>
</svg>
