<svg version="1.1" id="Layer_1" xmlns="http://www.w3.org/2000/svg" xmlns:xlink="http://www.w3.org/1999/xlink" x="0px" y="0px"
	 width="100%" viewBox="0 0 400 400" enable-background="new 0 0 400 400" xml:space="preserve">
<path fill="#222021" opacity="1.000000" stroke="none" 
	d="
M401.000000,218.000000 
	C401.000000,218.444443 401.000000,218.888901 400.630859,219.815857 
	C398.203766,231.384399 396.771667,242.632324 393.954559,253.521942 
	C388.477478,274.693634 379.282715,294.316040 367.040039,312.471161 
	C357.550232,326.543976 346.311523,339.150726 333.806274,350.537109 
	C318.666779,364.322113 301.488800,375.166687 282.795258,383.523224 
	C264.000641,391.924957 244.422607,397.525116 223.862991,399.495972 
	C222.539429,399.622833 221.286026,400.481659 220.000000,401.000000 
	C220.000000,401.000000 219.500000,401.000000 219.113037,400.628540 
	C216.484055,400.504730 214.242035,400.752380 212.000000,401.000000 
	C204.979050,401.000000 197.958099,401.000000 190.266968,400.725403 
	C188.714157,400.345734 187.831558,400.240692 186.574371,400.076447 
	C185.133209,400.344818 184.066605,400.672424 183.000000,401.000000 
	C181.933334,401.000000 180.866653,401.000000 179.348694,400.606018 
	C177.640518,399.888367 176.394882,399.509979 175.125015,399.249786 
	C165.534241,397.284698 155.772461,395.932251 146.376114,393.282166 
	C119.072884,385.581726 94.651001,372.610840 72.859100,354.092010 
	C61.785042,344.681213 51.856182,334.434601 42.872604,323.254028 
	C29.335102,306.405853 18.891966,287.608978 12.297783,267.015930 
	C8.846113,256.236664 7.300608,244.856033 4.653913,233.804535 
	C3.847612,230.437775 2.240404,227.262802 1.000001,224.000000 
	C1.000000,222.285645 1.000000,220.571289 1.346334,218.300140 
	C1.461779,216.162247 1.230890,214.581116 1.000001,213.000000 
	C1.000000,205.312424 1.000000,197.624832 1.285769,189.245209 
	C1.381026,187.035446 1.190514,185.517731 1.000000,184.000000 
	C1.000000,182.611115 1.000000,181.222214 1.391992,179.351959 
	C2.092143,178.155762 2.605775,177.461136 2.678359,176.723145 
	C4.419001,159.025208 9.196317,142.105179 15.724222,125.635895 
	C26.234667,99.119034 42.129627,76.119431 62.815750,56.703049 
	C72.764290,47.365158 83.720963,38.793785 95.277260,31.563316 
	C106.703957,24.413933 119.259827,18.917624 131.713745,13.621112 
	C138.689499,10.654402 146.425827,9.402473 153.887878,7.673165 
	C161.628754,5.879242 169.462418,4.488996 177.231369,2.810448 
	C178.874588,2.455413 180.413193,1.616149 182.000000,0.999998 
	C182.444443,1.000000 182.888901,1.000000 183.788681,1.350261 
	C185.829346,1.467015 187.414673,1.233508 189.000000,1.000001 
	C196.687576,1.000000 204.375168,1.000000 212.776489,1.293437 
	C215.015823,1.668172 216.541397,1.749471 218.497314,1.889171 
	C221.189392,2.295505 223.440002,2.818219 225.714676,2.963042 
	C240.610672,3.911423 254.818604,7.915335 268.756805,12.882070 
	C290.677979,20.693460 310.075165,32.664371 328.357513,47.166965 
	C345.392029,60.679756 358.760834,77.015846 370.394867,94.890549 
	C385.965576,118.813683 395.166260,145.283096 399.116821,173.569183 
	C399.559479,176.738632 400.363525,179.857620 401.000000,183.000000 
	C401.000000,192.354233 401.000000,201.708450 400.765076,211.815460 
	C400.686798,214.378830 400.843384,216.189407 401.000000,218.000000 
M64.045952,135.012848 
	C54.951439,135.007629 45.855804,134.928925 36.763470,135.067078 
	C35.186863,135.091049 33.624191,136.032471 31.841751,137.002029 
	C31.841751,137.002029 31.348543,137.082504 30.615864,137.511887 
	C30.407976,138.794220 30.019312,140.076416 30.018375,141.358902 
	C29.986668,184.752731 29.979349,228.146606 30.043493,271.540344 
	C30.045734,273.057983 30.812635,274.574493 31.825220,276.650879 
	C38.017338,276.479858 44.209454,276.308868 50.895935,275.915802 
	C50.734238,275.570953 50.572540,275.226105 50.158783,274.247437 
	C50.240944,273.580109 50.323101,272.912811 51.157639,271.736267 
	C51.434731,270.816406 51.950756,269.897247 51.953537,268.976562 
	C52.005844,251.646774 51.997375,234.316818 52.657650,216.785645 
	C53.104504,216.854645 53.551361,216.923645 54.466370,217.544937 
	C55.170376,217.655075 55.874382,217.765213 57.161018,218.117737 
	C62.054764,223.234741 66.960884,228.339996 71.839828,233.471085 
	C84.094406,246.358963 96.345848,259.249847 108.579353,272.157715 
	C113.385399,277.228729 124.151253,279.124176 130.777008,276.098328 
	C112.116096,256.224670 93.420441,236.314011 74.583443,216.252838 
	C79.161469,215.330444 83.509888,214.969269 87.479073,213.548569 
	C96.023804,210.490097 105.165413,208.099045 112.621834,203.228790 
	C124.543449,195.442032 128.404160,178.635040 123.576347,164.863388 
	C121.613312,159.263718 118.868042,154.547852 114.145264,150.687790 
	C104.192429,142.553055 92.296043,139.910980 79.801056,136.903091 
	C78.191101,136.976288 76.581154,137.049484 74.204613,137.285934 
	C72.202362,137.112579 70.200104,136.939240 67.888977,136.013535 
	C66.919586,135.683090 65.950203,135.352646 64.045952,135.012848 
M247.765442,238.103745 
	C246.708527,238.439102 245.651611,238.774460 244.013672,238.833221 
	C233.112778,227.101257 222.156204,215.420441 211.323334,203.625992 
	C192.591827,183.231735 173.967255,162.739166 155.197906,142.379959 
	C153.538925,140.580460 151.145126,139.458374 148.447815,138.557983 
	C148.298477,139.532196 148.018997,140.506332 148.018478,141.480637 
	C147.995361,184.951599 147.986832,228.422592 148.040817,271.893494 
	C148.042526,273.272186 148.717667,274.649994 149.648590,276.638733 
	C152.563354,276.863281 155.478119,277.087799 158.885849,277.350311 
	C158.885849,274.972992 158.882645,273.176361 158.886307,271.379730 
	C158.952744,238.915024 159.020004,206.450317 159.674377,173.975983 
	C160.121399,173.639221 160.568436,173.302460 161.657532,173.186600 
	C193.753708,207.800568 225.849884,242.414551 258.422577,277.542389 
	C258.759155,275.604584 258.899445,274.796936 259.365204,273.809143 
	C259.431549,273.705688 259.575897,273.539459 259.551483,273.509094 
	C259.404114,273.326050 259.218109,273.174103 258.817261,272.097260 
	C258.817261,227.079117 258.817261,182.060974 258.817261,136.590759 
	C255.042328,136.755737 251.921463,136.892151 248.062897,137.294601 
	C247.709641,138.653229 247.050888,140.011246 247.048126,141.370605 
	C246.987640,171.029297 246.975433,200.688202 247.064713,230.346741 
	C247.069641,231.983826 248.033203,233.618042 248.820892,235.857864 
	C248.729980,236.501755 248.639069,237.145645 247.765442,238.103745 
M315.634979,276.824951 
	C316.077881,276.854675 316.520782,276.884399 317.433075,277.505432 
	C319.285675,277.039612 321.138275,276.573761 323.766846,275.930084 
	C324.823273,275.904327 325.879669,275.878540 327.329712,276.426483 
	C328.548767,276.002808 329.767853,275.579163 331.661987,274.822113 
	C338.727875,272.719452 346.008789,271.150635 352.816986,268.408203 
	C369.401123,261.727905 382.103912,250.415466 388.401550,233.493912 
	C392.689606,221.972107 393.894226,209.572800 392.442169,197.277649 
	C390.941132,184.567261 388.503113,172.285507 379.960266,161.631973 
	C370.889679,150.320267 358.945435,144.560806 345.670624,141.407181 
	C334.993500,138.870682 323.878479,138.177658 312.662842,135.958939 
	C312.113159,135.657654 311.565643,135.098343 311.013519,135.093796 
	C302.873474,135.026794 294.731995,134.980698 286.593445,135.100754 
	C285.735870,135.113419 284.894196,136.207214 283.978271,137.627533 
	C283.978516,176.255859 283.990417,214.884171 283.968506,253.512497 
	C283.964447,260.664062 283.823639,267.815582 283.238983,275.077057 
	C283.408081,275.313538 283.577209,275.549988 283.983826,276.134583 
	C284.060577,276.411224 284.068817,276.689911 284.222260,277.747345 
	C284.721008,278.113037 285.215424,278.790680 285.719116,278.797607 
	C293.329498,278.902313 300.941833,278.976196 308.551270,278.873596 
	C309.372925,278.862518 310.179230,277.708618 311.656708,276.919250 
	C312.106750,276.972046 312.556763,277.024872 313.071289,277.657440 
	C313.402252,277.953552 313.733185,278.249664 314.064148,278.545776 
	C314.374939,278.043060 314.685730,277.540344 315.634979,276.824951 
z"/>
<path fill="#FDFDFD" opacity="1.000000" stroke="none" 
	d="
M220.468658,401.000000 
	C221.286026,400.481659 222.539429,399.622833 223.862991,399.495972 
	C244.422607,397.525116 264.000641,391.924957 282.795258,383.523224 
	C301.488800,375.166687 318.666779,364.322113 333.806274,350.537109 
	C346.311523,339.150726 357.550232,326.543976 367.040039,312.471161 
	C379.282715,294.316040 388.477478,274.693634 393.954559,253.521942 
	C396.771667,242.632324 398.203766,231.384399 400.630859,220.149200 
	C401.000000,280.260345 401.000000,340.520721 401.000000,401.000000 
	C340.979279,401.000000 280.958313,401.000000 220.468658,401.000000 
z"/>
<path fill="#FDFDFD" opacity="1.000000" stroke="none" 
	d="
M181.531342,0.999998 
	C180.413193,1.616149 178.874588,2.455413 177.231369,2.810448 
	C169.462418,4.488996 161.628754,5.879242 153.887878,7.673165 
	C146.425827,9.402473 138.689499,10.654402 131.713745,13.621112 
	C119.259827,18.917624 106.703957,24.413933 95.277260,31.563316 
	C83.720963,38.793785 72.764290,47.365158 62.815750,56.703049 
	C42.129627,76.119431 26.234667,99.119034 15.724222,125.635895 
	C9.196317,142.105179 4.419001,159.025208 2.678359,176.723145 
	C2.605775,177.461136 2.092143,178.155762 1.391992,178.935303 
	C1.000000,119.739037 1.000000,60.478069 1.000000,1.000000 
	C61.020721,1.000000 121.041702,1.000000 181.531342,0.999998 
z"/>
<path fill="#FDFDFD" opacity="1.000000" stroke="none" 
	d="
M401.000000,182.531342 
	C400.363525,179.857620 399.559479,176.738632 399.116821,173.569183 
	C395.166260,145.283096 385.965576,118.813683 370.394867,94.890549 
	C358.760834,77.015846 345.392029,60.679756 328.357513,47.166965 
	C310.075165,32.664371 290.677979,20.693460 268.756805,12.882070 
	C254.818604,7.915335 240.610672,3.911423 225.714676,2.963042 
	C223.440002,2.818219 221.189392,2.295505 218.480530,1.681480 
	C218.033432,1.415389 218.000000,1.000000 218.000000,1.000000 
	C278.926819,1.000000 339.853607,1.000000 401.000000,1.000000 
	C401.000000,61.354050 401.000000,121.708366 401.000000,182.531342 
z"/>
<path fill="#FDFDFD" opacity="1.000000" stroke="none" 
	d="
M1.000001,224.468658 
	C2.240404,227.262802 3.847612,230.437775 4.653913,233.804535 
	C7.300608,244.856033 8.846113,256.236664 12.297783,267.015930 
	C18.891966,287.608978 29.335102,306.405853 42.872604,323.254028 
	C51.856182,334.434601 61.785042,344.681213 72.859100,354.092010 
	C94.651001,372.610840 119.072884,385.581726 146.376114,393.282166 
	C155.772461,395.932251 165.534241,397.284698 175.125015,399.249786 
	C176.394882,399.509979 177.640518,399.888367 178.948700,400.606018 
	C119.739853,401.000000 60.479702,401.000000 1.000000,401.000000 
	C1.000000,342.312622 1.000000,283.624969 1.000001,224.468658 
z"/>
<path fill="#BDBBBC" opacity="1.000000" stroke="none" 
	d="
M212.437500,401.000000 
	C214.242035,400.752380 216.484055,400.504730 218.863037,400.628540 
	C216.958328,401.000000 214.916672,401.000000 212.437500,401.000000 
z"/>
<path fill="#BDBBBC" opacity="1.000000" stroke="none" 
	d="
M401.000000,217.571533 
	C400.843384,216.189407 400.686798,214.378830 400.765076,212.284119 
	C401.000000,213.714355 401.000000,215.428711 401.000000,217.571533 
z"/>
<path fill="#BDBBBC" opacity="1.000000" stroke="none" 
	d="
M1.000001,213.416656 
	C1.230890,214.581116 1.461779,216.162247 1.346334,217.871674 
	C1.000000,216.611115 1.000000,215.222214 1.000001,213.416656 
z"/>
<path fill="#BDBBBC" opacity="1.000000" stroke="none" 
	d="
M188.583344,1.000001 
	C187.414673,1.233508 185.829346,1.467015 184.122009,1.350261 
	C185.388885,1.000000 186.777786,1.000000 188.583344,1.000001 
z"/>
<path fill="#BDBBBC" opacity="1.000000" stroke="none" 
	d="
M217.583344,1.000000 
	C218.000000,1.000000 218.033432,1.415389 218.050201,1.623079 
	C216.541397,1.749471 215.015823,1.668172 213.245117,1.293437 
	C214.388885,1.000000 215.777786,1.000000 217.583344,1.000000 
z"/>
<path fill="#BDBBBC" opacity="1.000000" stroke="none" 
	d="
M1.000000,184.416656 
	C1.190514,185.517731 1.381026,187.035446 1.285769,188.776581 
	C1.000000,187.611115 1.000000,186.222214 1.000000,184.416656 
z"/>
<path fill="#BDBBBC" opacity="1.000000" stroke="none" 
	d="
M183.400040,401.000000 
	C184.066605,400.672424 185.133209,400.344818 186.598114,400.291870 
	C186.996399,400.566528 187.000000,401.000000 187.000000,401.000000 
	C185.933365,401.000000 184.866714,401.000000 183.400040,401.000000 
z"/>
<path fill="#918F90" opacity="1.000000" stroke="none" 
	d="
M187.375000,401.000000 
	C187.000000,401.000000 186.996399,400.566528 186.972672,400.351074 
	C187.831558,400.240692 188.714157,400.345734 189.798386,400.725403 
	C189.250000,401.000000 188.500000,401.000000 187.375000,401.000000 
z"/>
<path fill="#F7F7F7" opacity="1.000000" stroke="none" 
	d="
M312.957733,136.666672 
	C323.878479,138.177658 334.993500,138.870682 345.670624,141.407181 
	C358.945435,144.560806 370.889679,150.320267 379.960266,161.631973 
	C388.503113,172.285507 390.941132,184.567261 392.442169,197.277649 
	C393.894226,209.572800 392.689606,221.972107 388.401550,233.493912 
	C382.103912,250.415466 369.401123,261.727905 352.816986,268.408203 
	C346.008789,271.150635 338.727875,272.719452 330.977966,274.971680 
	C329.174652,275.365082 328.055389,275.608917 326.936096,275.852753 
	C325.879669,275.878540 324.823273,275.904327 322.992188,275.977997 
	C320.466217,276.321960 318.714966,276.618042 316.963684,276.914124 
	C316.520782,276.884399 316.077881,276.854675 314.984985,276.874695 
	C313.892273,276.975525 313.449554,277.026611 313.006805,277.077667 
	C312.556763,277.024872 312.106750,276.972046 310.858948,276.947998 
	C301.376984,276.974731 292.692780,276.972687 284.008606,276.970642 
	C284.068817,276.689911 284.060577,276.411224 283.936646,275.755676 
	C283.889465,275.376770 283.745941,274.967102 283.745941,274.967102 
	C283.823639,267.815582 283.964447,260.664062 283.968506,253.512497 
	C283.990417,214.884171 283.978516,176.255859 284.403046,137.145813 
	C294.204468,136.664963 303.581085,136.665817 312.957733,136.666672 
M371.151886,181.493042 
	C371.080994,181.332108 371.010132,181.171188 370.946167,180.276688 
	C365.399597,163.021179 353.966400,151.692078 336.775055,145.975342 
	C325.973846,142.383560 314.845001,143.087433 303.763031,142.995682 
	C303.483307,142.993362 303.198242,143.631973 302.703308,144.892044 
	C302.700378,163.673843 302.670258,182.455673 302.701660,201.237411 
	C302.738312,223.171692 302.828705,245.105850 302.647736,267.667603 
	C302.722961,268.104187 302.798218,268.540771 302.888031,269.797974 
	C308.257446,269.861542 313.626831,269.925110 319.839722,270.137146 
	C327.780762,269.141632 335.298187,266.740967 342.979126,264.520050 
	C356.553680,260.595001 373.571564,235.937042 372.777161,221.822754 
	C372.910248,220.532822 373.043335,219.242889 373.218475,217.090866 
	C373.170746,214.801376 373.123016,212.511871 373.617432,210.015686 
	C373.721710,209.681366 373.825989,209.347046 374.130249,208.135986 
	C373.797638,203.099350 373.464996,198.062698 373.317108,192.276855 
	C372.904846,191.442444 372.492584,190.608032 372.079254,189.076447 
	C372.030365,188.381393 371.981445,187.686340 372.128967,186.372162 
	C371.788879,186.132645 371.448822,185.893143 371.724365,185.065125 
	C371.486847,184.043961 371.249329,183.022812 371.151886,181.493042 
z"/>
<path fill="#F9F9F9" opacity="1.000000" stroke="none" 
	d="
M50.405258,272.245483 
	C50.323101,272.912811 50.240944,273.580109 50.206932,274.877960 
	C50.303909,275.718262 50.352737,275.928040 50.401569,276.137878 
	C44.209454,276.308868 38.017338,276.479858 31.612123,275.903107 
	C31.382198,229.131058 31.365372,183.106781 31.348543,137.082504 
	C31.348543,137.082504 31.841751,137.002029 32.412521,136.805542 
	C43.739758,136.600098 54.496216,136.591125 65.607208,136.704803 
	C66.707115,136.806946 67.452484,136.786407 68.197853,136.765884 
	C70.200104,136.939240 72.202362,137.112579 75.010384,137.319733 
	C77.274323,137.438034 78.732491,137.522552 80.190659,137.607071 
	C92.296043,139.910980 104.192429,142.553055 114.145264,150.687790 
	C118.868042,154.547852 121.613312,159.263718 123.576347,164.863388 
	C128.404160,178.635040 124.543449,195.442032 112.621834,203.228790 
	C105.165413,208.099045 96.023804,210.490097 87.479073,213.548569 
	C83.509888,214.969269 79.161469,215.330444 74.583443,216.252838 
	C93.420441,236.314011 112.116096,256.224670 130.777008,276.098328 
	C124.151253,279.124176 113.385399,277.228729 108.579353,272.157715 
	C96.345848,259.249847 84.094406,246.358963 71.839828,233.471085 
	C66.960884,228.339996 62.054764,223.234741 56.656822,217.683243 
	C55.434490,217.163376 54.716351,217.078003 53.998215,216.992630 
	C53.551361,216.923645 53.104504,216.854645 51.843681,216.877579 
	C50.745586,217.496948 50.212418,218.024826 50.213379,218.551743 
	C50.245968,236.449707 50.329281,254.347595 50.405258,272.245483 
M52.904186,211.025772 
	C62.388145,210.060379 72.169235,210.248474 81.296249,207.897400 
	C102.453888,202.447266 109.527832,186.061966 105.192009,166.630600 
	C102.097496,152.762283 90.989113,146.240341 77.920326,144.089081 
	C69.458054,142.696121 60.638577,143.473175 50.959557,143.382019 
	C50.756145,143.644073 50.375576,143.905426 50.374538,144.168274 
	C50.289188,165.891922 50.221176,187.615707 50.251213,209.339340 
	C50.251907,209.840179 51.383221,210.339462 52.904186,211.025772 
z"/>
<path fill="#F5F5F6" opacity="1.000000" stroke="none" 
	d="
M259.039734,273.989288 
	C258.899445,274.796936 258.759155,275.604584 258.422577,277.542389 
	C225.849884,242.414551 193.753708,207.800568 161.207153,172.785675 
	C160.288071,172.026886 159.819366,171.669006 159.087082,171.109879 
	C159.087082,172.350143 159.087082,173.167877 159.087082,173.985611 
	C159.020004,206.450317 158.952744,238.915024 158.886307,271.379730 
	C158.882645,273.176361 158.885849,274.972992 158.885849,277.350311 
	C155.478119,277.087799 152.563354,276.863281 149.439438,275.868164 
	C149.247131,250.505157 149.293793,225.912720 149.271759,201.320358 
	C149.252853,180.220749 149.155350,159.121231 149.092621,138.021667 
	C151.145126,139.458374 153.538925,140.580460 155.197906,142.379959 
	C173.967255,162.739166 192.591827,183.231735 211.323334,203.625992 
	C222.156204,215.420441 233.112778,227.101257 244.397507,239.287766 
	C245.686081,240.589844 246.590820,241.437378 247.684204,242.563263 
	C248.097733,242.907578 248.322662,242.973511 248.547577,243.039444 
	C248.571503,242.680664 248.595413,242.321899 248.683807,241.618530 
	C248.681564,240.112457 248.614868,238.951004 248.548157,237.789536 
	C248.639069,237.145645 248.729980,236.501755 248.757065,235.106201 
	C248.729034,201.912537 248.764816,169.470551 248.800598,137.028549 
	C251.921463,136.892151 255.042328,136.755737 258.817261,136.590759 
	C258.817261,182.060974 258.817261,227.079117 258.878418,272.798645 
	C258.939575,273.500000 259.039734,273.989288 259.039734,273.989288 
z"/>
<path fill="#090909" opacity="1.000000" stroke="none" 
	d="
M248.431747,137.161575 
	C248.764816,169.470551 248.729034,201.912537 248.621887,234.804062 
	C248.033203,233.618042 247.069641,231.983826 247.064713,230.346741 
	C246.975433,200.688202 246.987640,171.029297 247.048126,141.370605 
	C247.050888,140.011246 247.709641,138.653229 248.431747,137.161575 
z"/>
<path fill="#040404" opacity="1.000000" stroke="none" 
	d="
M30.982204,137.297195 
	C31.365372,183.106781 31.382198,229.131058 31.311085,275.623413 
	C30.812635,274.574493 30.045734,273.057983 30.043493,271.540344 
	C29.979349,228.146606 29.986668,184.752731 30.018375,141.358902 
	C30.019312,140.076416 30.407976,138.794220 30.982204,137.297195 
z"/>
<path fill="#030102" opacity="1.000000" stroke="none" 
	d="
M148.770218,138.289825 
	C149.155350,159.121231 149.252853,180.220749 149.271759,201.320358 
	C149.293793,225.912720 149.247131,250.505157 149.154572,275.562897 
	C148.717667,274.649994 148.042526,273.272186 148.040817,271.893494 
	C147.986832,228.422592 147.995361,184.951599 148.018478,141.480637 
	C148.018997,140.506332 148.298477,139.532196 148.770218,138.289825 
z"/>
<path fill="#111011" opacity="1.000000" stroke="none" 
	d="
M50.781448,271.990875 
	C50.329281,254.347595 50.245968,236.449707 50.213379,218.551743 
	C50.212418,218.024826 50.745586,217.496948 51.515663,216.978210 
	C51.997375,234.316818 52.005844,251.646774 51.953537,268.976562 
	C51.950756,269.897247 51.434731,270.816406 50.781448,271.990875 
z"/>
<path fill="#030102" opacity="1.000000" stroke="none" 
	d="
M65.252678,136.582153 
	C54.496216,136.591125 43.739758,136.600098 32.519188,136.579590 
	C33.624191,136.032471 35.186863,135.091049 36.763470,135.067078 
	C45.855804,134.928925 54.951439,135.007629 64.563339,135.410538 
	C65.138031,136.066208 65.195351,136.324173 65.252678,136.582153 
z"/>
<path fill="#121212" opacity="1.000000" stroke="none" 
	d="
M284.115417,277.359009 
	C292.692780,276.972687 301.376984,276.974731 310.526917,277.030823 
	C310.179230,277.708618 309.372925,278.862518 308.551270,278.873596 
	C300.941833,278.976196 293.329498,278.902313 285.719116,278.797607 
	C285.215424,278.790680 284.721008,278.113037 284.115417,277.359009 
z"/>
<path fill="#030102" opacity="1.000000" stroke="none" 
	d="
M312.810303,136.312805 
	C303.581085,136.665817 294.204468,136.664963 284.436493,136.731766 
	C284.894196,136.207214 285.735870,135.113419 286.593445,135.100754 
	C294.731995,134.980698 302.873474,135.026794 311.013519,135.093796 
	C311.565643,135.098343 312.113159,135.657654 312.810303,136.312805 
z"/>
<path fill="#121212" opacity="1.000000" stroke="none" 
	d="
M317.198364,277.209778 
	C318.714966,276.618042 320.466217,276.321960 322.604187,276.066895 
	C321.138275,276.573761 319.285675,277.039612 317.198364,277.209778 
z"/>
<path fill="#090909" opacity="1.000000" stroke="none" 
	d="
M247.495575,242.284897 
	C246.590820,241.437378 245.686081,240.589844 244.688019,239.426056 
	C245.651611,238.774460 246.708527,238.439102 248.156799,237.946640 
	C248.614868,238.951004 248.681564,240.112457 248.388428,241.648590 
	C247.850922,242.110474 247.673248,242.197693 247.495575,242.284897 
z"/>
<path fill="#121212" opacity="1.000000" stroke="none" 
	d="
M327.132904,276.139618 
	C328.055389,275.608917 329.174652,275.365082 330.640442,275.138367 
	C329.767853,275.579163 328.548767,276.002808 327.132904,276.139618 
z"/>
<path fill="#121212" opacity="1.000000" stroke="none" 
	d="
M79.995857,137.255081 
	C78.732491,137.522552 77.274323,137.438034 75.393677,137.238098 
	C76.581154,137.049484 78.191101,136.976288 79.995857,137.255081 
z"/>
<path fill="#010302" opacity="1.000000" stroke="none" 
	d="
M159.380737,173.980804 
	C159.087082,173.167877 159.087082,172.350143 159.087082,171.109879 
	C159.819366,171.669006 160.288071,172.026886 160.886139,172.675232 
	C160.568436,173.302460 160.121399,173.639221 159.380737,173.980804 
z"/>
<path fill="#121212" opacity="1.000000" stroke="none" 
	d="
M313.039062,277.367554 
	C313.449554,277.026611 313.892273,276.975525 314.665771,276.981049 
	C314.685730,277.540344 314.374939,278.043060 314.064148,278.545776 
	C313.733185,278.249664 313.402252,277.953552 313.039062,277.367554 
z"/>
<path fill="#121212" opacity="1.000000" stroke="none" 
	d="
M65.607208,136.704803 
	C65.195351,136.324173 65.138031,136.066208 65.030762,135.415207 
	C65.950203,135.352646 66.919586,135.683090 68.043411,136.389709 
	C67.452484,136.786407 66.707115,136.806946 65.607208,136.704803 
z"/>
<path fill="#111011" opacity="1.000000" stroke="none" 
	d="
M54.232292,217.268784 
	C54.716351,217.078003 55.434490,217.163376 56.365509,217.562042 
	C55.874382,217.765213 55.170376,217.655075 54.232292,217.268784 
z"/>
<path fill="#010000" opacity="1.000000" stroke="none" 
	d="
M259.202454,273.899231 
	C259.039734,273.989288 258.939575,273.500000 258.992310,273.255890 
	C259.218109,273.174103 259.404114,273.326050 259.551483,273.509094 
	C259.575897,273.539459 259.431549,273.705688 259.202454,273.899231 
z"/>
<path fill="#111011" opacity="1.000000" stroke="none" 
	d="
M50.648750,276.026825 
	C50.352737,275.928040 50.303909,275.718262 50.332962,275.194885 
	C50.572540,275.226105 50.734238,275.570953 50.648750,276.026825 
z"/>
<path fill="#181818" opacity="1.000000" stroke="none" 
	d="
M283.492462,275.022095 
	C283.745941,274.967102 283.889465,275.376770 283.817871,275.581604 
	C283.577209,275.549988 283.408081,275.313538 283.492462,275.022095 
z"/>
<path fill="#211F20" opacity="1.000000" stroke="none" 
	d="
M373.075256,210.222382 
	C373.123016,212.511871 373.170746,214.801376 372.888245,217.746948 
	C372.390381,219.654587 372.222748,220.906158 372.055115,222.157730 
	C373.571564,235.937042 356.553680,260.595001 342.979126,264.520050 
	C335.298187,266.740967 327.780762,269.141632 319.127625,269.763123 
	C313.234833,269.251831 308.054138,269.114594 302.873474,268.977356 
	C302.798218,268.540771 302.722961,268.104187 303.092590,267.075745 
	C303.695984,265.511932 303.992493,264.540100 303.993103,263.568085 
	C304.017090,225.081024 304.025604,186.593964 303.968475,148.106995 
	C303.966431,146.728043 303.282074,145.350098 302.915649,143.971680 
	C303.198242,143.631973 303.483307,142.993362 303.763031,142.995682 
	C314.845001,143.087433 325.973846,142.383560 336.775055,145.975342 
	C353.966400,151.692078 365.399597,163.021179 370.785828,180.742157 
	C370.754272,181.472305 370.883026,181.736969 371.011810,182.001648 
	C371.249329,183.022812 371.486847,184.043961 371.476196,185.626007 
	C371.462860,186.455017 371.697693,186.723160 371.932556,186.991302 
	C371.981445,187.686340 372.030365,188.381393 372.057922,189.794586 
	C372.401855,191.350494 372.767120,192.188278 373.132385,193.026062 
	C373.464996,198.062698 373.797638,203.099350 373.819885,208.720825 
	C373.364746,209.611237 373.220001,209.916809 373.075256,210.222382 
z"/>
<path fill="#080808" opacity="1.000000" stroke="none" 
	d="
M302.809509,144.431870 
	C303.282074,145.350098 303.966431,146.728043 303.968475,148.106995 
	C304.025604,186.593964 304.017090,225.081024 303.993103,263.568085 
	C303.992493,264.540100 303.695984,265.511932 303.216644,266.761963 
	C302.828705,245.105850 302.738312,223.171692 302.701660,201.237411 
	C302.670258,182.455673 302.700378,163.673843 302.809509,144.431870 
z"/>
<path fill="#080808" opacity="1.000000" stroke="none" 
	d="
M302.880737,269.387665 
	C308.054138,269.114594 313.234833,269.251831 318.705872,269.688873 
	C313.626831,269.925110 308.257446,269.861542 302.880737,269.387665 
z"/>
<path fill="#181818" opacity="1.000000" stroke="none" 
	d="
M372.416138,221.990234 
	C372.222748,220.906158 372.390381,219.654587 372.867188,218.177979 
	C373.043335,219.242889 372.910248,220.532822 372.416138,221.990234 
z"/>
<path fill="#181818" opacity="1.000000" stroke="none" 
	d="
M373.224731,192.651459 
	C372.767120,192.188278 372.401855,191.350494 372.058441,190.143173 
	C372.492584,190.608032 372.904846,191.442444 373.224731,192.651459 
z"/>
<path fill="#181818" opacity="1.000000" stroke="none" 
	d="
M372.030762,186.681732 
	C371.697693,186.723160 371.462860,186.455017 371.168396,185.920258 
	C371.448822,185.893143 371.788879,186.132645 372.030762,186.681732 
z"/>
<path fill="#181818" opacity="1.000000" stroke="none" 
	d="
M371.081848,181.747345 
	C370.883026,181.736969 370.754272,181.472305 370.782349,181.108948 
	C371.010132,181.171188 371.080994,181.332108 371.081848,181.747345 
z"/>
<path fill="#181818" opacity="1.000000" stroke="none" 
	d="
M373.346375,210.119034 
	C373.220001,209.916809 373.364746,209.611237 373.719910,209.159195 
	C373.825989,209.347046 373.721710,209.681366 373.346375,210.119034 
z"/>
<path fill="#222021" opacity="1.000000" stroke="none" 
	d="
M51.979160,143.277847 
	C60.638577,143.473175 69.458054,142.696121 77.920326,144.089081 
	C90.989113,146.240341 102.097496,152.762283 105.192009,166.630600 
	C109.527832,186.061966 102.453888,202.447266 81.296249,207.897400 
	C72.169235,210.248474 62.388145,210.060379 52.447887,210.474243 
	C51.987446,187.707764 51.983303,165.492813 51.979160,143.277847 
z"/>
<path fill="#121212" opacity="1.000000" stroke="none" 
	d="
M51.469360,143.329926 
	C51.983303,165.492813 51.987446,187.707764 51.989372,210.381104 
	C51.383221,210.339462 50.251907,209.840179 50.251213,209.339340 
	C50.221176,187.615707 50.289188,165.891922 50.374538,144.168274 
	C50.375576,143.905426 50.756145,143.644073 51.469360,143.329926 
z"/>
<path fill="#222021" opacity="1.000000" stroke="none" 
	d="
M247.684204,242.563263 
	C247.673248,242.197693 247.850922,242.110474 248.323959,241.993195 
	C248.595413,242.321899 248.571503,242.680664 248.547577,243.039444 
	C248.322662,242.973511 248.097733,242.907578 247.684204,242.563263 
z"/>
</svg>