<svg enable-background="new 0 0 200 80" height="80px" id="Layer_1" version="1.1" viewBox="0 0 200 80" width="200px" x="0px" xml:space="preserve" xmlns="http://www.w3.org/2000/svg" xmlns:xlink="http://www.w3.org/1999/xlink" y="0px">
<g opacity="0.25">
<path d="M183.041,24.073c0.093-0.32-0.018-0.5-0.266-0.5h-6.182
		c-0.25,0-0.409,0.164-0.409,0.387c0,0.198,0.11,0.307,0.257,0.307h2.82l-3.303,10.852c-0.158-1.996-1.405-3.451-3.454-3.451
		c-4.865,0-10.093,6.116-10.093,11.924c0,4.557,2.551,6.589,4.887,6.589c1.933,0,4.043-1.602,5.676-4.776
		c-0.616,3.279,0.75,4.776,2.873,4.776c1.57,0,3.164-1.173,5.277-6.306c0.107-0.26-0.021-0.436-0.281-0.436
		c-0.188,0-0.317,0.091-0.41,0.305c-1.963,4.51-3.083,5.404-3.845,5.404c-0.652,0-1.022-0.541-0.306-2.953L183.041,24.073z
		 M175.031,38.197l-0.815,2.67c-1.791,5.869-4.823,8.523-6.675,8.523c-1.284,0-1.91-0.959-1.91-3.016
		c0-6.234,4.119-13.907,7.445-13.907C174.705,32.468,176.043,34.834,175.031,38.197z" stroke="#000000" stroke-miterlimit="10"></path>
<path d="M161.34,38.838c0-4.232-2.953-7.17-6.164-7.17
		c-5.383,0-10.018,5.598-10.018,11.344c0,4.23,2.952,7.169,6.164,7.169C156.705,50.181,161.34,44.584,161.34,38.838z M148.346,45.76
		c0-3.217,1.653-9.147,4.113-11.911c0.846-0.953,1.817-1.488,2.898-1.488c1.664,0,2.795,1.056,2.795,3.728
		c0,3.216-1.655,9.147-4.113,11.911c-0.847,0.952-1.818,1.488-2.899,1.488C149.477,49.487,148.346,48.432,148.346,45.76z" stroke="#000000" stroke-miterlimit="10"></path>
<path d="M133.98,50.181c5.382,0,10.018-5.597,10.018-11.342
		c0-4.232-2.953-7.17-6.166-7.17c-5.381,0-10.018,5.598-10.018,11.344C127.814,47.242,130.767,50.181,133.98,50.181z
		 M135.115,33.849c0.847-0.953,1.819-1.488,2.9-1.488c1.662,0,2.795,1.056,2.795,3.728c0,3.216-1.655,9.147-4.113,11.911
		c-0.847,0.952-1.82,1.488-2.9,1.488c-1.663,0-2.795-1.056-2.795-3.728C131.002,42.543,132.657,36.613,135.115,33.849z" stroke="#000000" stroke-miterlimit="10"></path>
<path d="M124.843,31.769c-1.204,0-2.03,0.971-2.03,2.019c0,1.092,0.939,1.966,1.992,1.966
		c0.729,0,1.312-0.429,1.584-0.924c0.044,0.289,0.076,0.583,0.076,0.894c0,6.192-5.352,13.511-8.645,13.511
		c-1.219,0-2.037-0.809-0.951-3.928l4.068-13.184h-3.705l-2.353,7.672c-2.026,6.451-5.029,9.439-6.818,9.439
		c-1.105,0-1.704-0.842-0.888-3.494l3.979-13.12c0.094-0.321-0.019-0.498-0.265-0.498h-5.942c-0.249,0-0.408,0.162-0.408,0.384
		c0,0.198,0.11,0.307,0.256,0.307h2.58l-3.321,10.853c-1.308,4.254,0.673,6.515,3.603,6.515c2.1,0,4.284-2.167,5.85-5.427
		c-0.545,3.338,1.138,5.427,3.614,5.427c5.361,0,10.192-8.765,10.192-14.613C127.311,32.738,126.256,31.769,124.843,31.769z" stroke="#000000" stroke-miterlimit="10"></path>
<path d="M83.784,43.439c-0.186,0-0.317,0.091-0.41,0.305
		c-1.962,4.51-3.083,5.404-3.845,5.404c-0.652,0-1.021-0.541-0.305-2.953l6.759-22.122c0.093-0.32-0.018-0.5-0.267-0.5h-5.942
		c-0.25,0-0.407,0.164-0.407,0.387c0,0.198,0.11,0.307,0.255,0.307h2.582L75.988,44.6c-1.015,3.723,0.334,5.581,2.797,5.581
		c1.573,0,3.171-1.173,5.28-6.306C84.17,43.615,84.043,43.439,83.784,43.439z" stroke="#000000" stroke-miterlimit="10"></path>
<path d="M74.146,43.439c-0.187,0-0.319,0.091-0.411,0.305
		c-1.951,4.515-3.083,5.404-3.846,5.404c-0.652,0-1.02-0.541-0.303-2.953l6.757-22.122c0.093-0.32-0.017-0.5-0.266-0.5h-5.941
		c-0.25,0-0.409,0.164-0.409,0.387c0,0.198,0.11,0.307,0.255,0.307h2.582L66.35,44.6c-1.016,3.723,0.334,5.581,2.799,5.581
		c1.573,0,3.166-1.174,5.278-6.306C74.533,43.615,74.404,43.439,74.146,43.439z" stroke="#000000" stroke-miterlimit="10"></path>
<path d="M59.143,31.668c-5.381,0-10.016,5.598-10.016,11.344
		c0,4.23,2.953,7.169,6.165,7.169c5.382,0,10.018-5.597,10.018-11.342C65.309,34.606,62.356,31.668,59.143,31.668z M58.008,47.999
		c-0.847,0.952-1.818,1.488-2.899,1.488c-1.664,0-2.794-1.056-2.794-3.728c0-3.217,1.653-9.147,4.111-11.911
		c0.847-0.953,1.82-1.488,2.901-1.488c1.663,0,2.792,1.056,2.792,3.728C62.119,39.305,60.466,45.235,58.008,47.999z" stroke="#000000" stroke-miterlimit="10"></path>
<path d="M47.797,49.038h-3.246l7.571-24.771h3.141c0.25,0,0.409-0.164,0.409-0.387
		c0-0.198-0.111-0.306-0.256-0.306H45.18c-0.25,0-0.408,0.164-0.408,0.387c0,0.198,0.111,0.307,0.255,0.307h3.12l-3.6,11.776H34.29
		l3.598-11.776h3.03c0.25,0,0.409-0.164,0.409-0.387c0-0.198-0.11-0.306-0.256-0.306H30.834c-0.25,0-0.409,0.164-0.409,0.387
		c0,0.198,0.11,0.307,0.256,0.307h3.231L26.34,49.036h-3.125c-0.25,0-0.409,0.162-0.409,0.388c0,0.197,0.112,0.305,0.256,0.305
		h10.236c0.25,0,0.41-0.162,0.41-0.387c0-0.197-0.111-0.306-0.255-0.306h-3.135l3.76-12.304h10.258l-3.761,12.306H37.56
		c-0.249,0-0.407,0.16-0.407,0.386c0,0.197,0.11,0.305,0.256,0.305h10.236c0.25,0,0.407-0.162,0.407-0.387
		C48.052,49.145,47.942,49.038,47.797,49.038z" stroke="#000000" stroke-miterlimit="10"></path>
<path d="M99.15,32.123l-1.703,5.536c-0.091,0.297-0.5,1.609-0.596,1.882
		c-2.146,6.604-4.884,9.505-6.708,9.675c-0.133,0.013-0.262,0.011-0.383-0.003c-0.996-0.117-1.414-1.058-0.847-3.021l4.096-13.572
		c0.04-0.136,0.013-0.228-0.043-0.275c-0.002-0.145-0.449-0.223-0.593-0.223h-5.319c-0.086,0-0.409,0.026-0.456,0.073
		c-0.123,0.047-0.204,0.164-0.204,0.311c0,0.088,0.031,0.149,0.083,0.178c0.028,0.083,0.375,0.125,0.451,0.125h2.125l0.116,0.2
		l-3.27,10.635c-1.277,4.244,0.629,6.438,3.432,6.528c0.137,0.004,0.275,0.002,0.414-0.01c1.846-0.133,3.849-1.906,5.478-5.217
		c0.013-0.023-0.003,0.047,0.009,0.022l-2.698,8.724c-1.331,4.42-2.994,5.955-4.837,6.143c-0.375,0.04-0.743,0.039-1.1,0.006
		c-1.367-0.123-2.304-0.574-2.855-1.284c0.394,0.132,0.854,0.151,1.299,0.015c0.569-0.189,1.002-0.611,1.206-1.16
		c0.149-0.405,0.171-0.847,0.05-1.277c-0.171-0.617-0.641-1.117-1.255-1.322c-0.374-0.123-0.775-0.132-1.167-0.025
		c-0.691,0.187-1.265,0.747-1.455,1.549c-0.083,0.35-0.096,0.721-0.035,1.102c0.272,1.701,1.983,2.979,4.372,3.125
		c0.248,0.016,0.502,0.021,0.76,0.013c3.633-0.104,7.264-2.024,9.164-8.248l6.177-20.205H99.15z" stroke="#000000" stroke-miterlimit="10"></path>
<polygon points="115.793,57.247 116.287,55.631 112.443,55.631 112.908,54.125 
		117.721,54.125 118.223,52.487 111.148,52.487 108.713,60.459 115.785,60.459 116.283,58.822 111.456,58.822 111.943,57.247 	" stroke="#000000" stroke-miterlimit="10"></polygon>
<path d="M105.975,52.487h-4.566l-2.437,7.972h2.25l0.837-2.738h1.818l1.207,2.738h2.373
		l-1.424-2.959c1.344-0.254,2.188-0.93,2.521-2.054l0.061-0.196C109.113,53.623,108.271,52.487,105.975,52.487z M106.338,55.07
		l-0.021,0.07c-0.247,0.804-0.828,1.074-1.743,1.074h-2.054l0.68-2.23h2.23C106.271,53.984,106.554,54.361,106.338,55.07z" stroke="#000000" stroke-miterlimit="10"></path>
<path d="M143.745,52.487h-4.567l-2.437,7.972h2.25l0.838-2.738h1.816l1.209,2.738h2.372
		l-1.424-2.959c1.342-0.254,2.188-0.93,2.522-2.054l0.06-0.196C146.883,53.623,146.041,52.487,143.745,52.487z M144.068,55.07
		l-0.021,0.07c-0.246,0.804-0.787,1.074-1.705,1.074h-2.054l0.682-2.23h2.229C144.04,53.984,144.285,54.361,144.068,55.07z" stroke="#000000" stroke-miterlimit="10"></path>
<path d="M170.846,52.487h-4.565l-2.438,7.972h2.252l0.836-2.738h1.817l1.208,2.738h2.372
		l-1.423-2.959c1.344-0.254,2.187-0.93,2.522-2.054l0.06-0.196C173.982,53.623,173.143,52.487,170.846,52.487z M171.208,55.07
		l-0.022,0.07c-0.244,0.804-0.826,1.074-1.74,1.074h-2.056l0.681-2.23h2.229C171.143,53.984,171.426,54.361,171.208,55.07z" stroke="#000000" stroke-miterlimit="10"></path>
<polygon points="162.121,57.247 162.613,55.631 158.77,55.631 159.234,54.125 
		164.047,54.125 164.549,52.487 157.477,52.487 155.037,60.459 162.111,60.459 162.609,58.822 157.782,58.822 158.27,57.247 	" stroke="#000000" stroke-miterlimit="10"></polygon>
<path d="M124.151,52.487h-4.192l-2.438,7.972h2.25l0.766-2.506h2.582
		c2.203,0,3.302-0.738,3.792-2.345l0.088-0.286C127.488,53.725,126.691,52.487,124.151,52.487z M124.691,55.203l-0.053,0.176
		c-0.229,0.754-0.801,1.068-1.754,1.068h-1.887l0.752-2.463h2.009C124.711,53.984,124.961,54.321,124.691,55.203z" stroke="#000000" stroke-miterlimit="10"></path>
<polygon points="155.94,52.487 148.053,52.487 147.551,54.125 150.484,54.125 
		148.546,60.459 150.809,60.459 152.748,54.125 155.441,54.125 	" stroke="#000000" stroke-miterlimit="10"></polygon>
<path d="M133.122,52.316c-2.759,0-4.276,0.927-4.975,3.207l-0.29,0.957
		c-0.834,2.72,0.692,4.15,3.28,4.15c2.759,0,4.277-0.928,4.976-3.208l0.29-0.956C137.236,53.746,135.711,52.316,133.122,52.316z
		 M134.321,55.959l-0.392,1.258c-0.352,1.152-1.056,1.73-2.352,1.73c-1.428,0-2.002-0.761-1.639-1.959l0.391-1.26
		c0.352-1.151,1.057-1.729,2.353-1.729C134.109,53.999,134.685,54.76,134.321,55.959z" stroke="#000000" stroke-miterlimit="10"></path>
<polygon points="96.729,29.62 97.477,27.174 99.83,27.174 99.081,29.62 100.852,29.62 
		102.7,23.574 100.93,23.574 100.222,25.885 97.872,25.885 98.577,23.574 96.806,23.574 94.958,29.62 	" stroke="#000000" stroke-miterlimit="10"></polygon>
<polygon points="90.227,29.62 91.995,29.62 93.445,24.881 95.396,24.881 95.797,23.574 
		89.862,23.574 89.461,24.881 91.677,24.881 	" stroke="#000000" stroke-miterlimit="10"></polygon>
<polygon points="107.562,29.62 107.961,28.315 104.396,28.315 104.726,27.25 
		107.646,27.25 108.041,25.96 105.125,25.96 105.458,24.881 109.008,24.881 109.41,23.574 104.08,23.574 102.232,29.62 	" stroke="#000000" stroke-miterlimit="10"></polygon>
</g>
<g>
<path d="M182.041,23.073c0.093-0.32-0.018-0.5-0.266-0.5h-6.182c-0.25,0-0.409,0.164-0.409,0.387
		c0,0.198,0.11,0.307,0.257,0.307h2.82l-3.303,10.852c-0.158-1.996-1.405-3.451-3.454-3.451c-4.865,0-10.093,6.116-10.093,11.924
		c0,4.557,2.551,6.589,4.887,6.589c1.933,0,4.043-1.602,5.676-4.776c-0.616,3.279,0.75,4.776,2.873,4.776
		c1.57,0,3.164-1.173,5.277-6.306c0.107-0.26-0.021-0.436-0.281-0.436c-0.188,0-0.317,0.091-0.41,0.305
		c-1.963,4.51-3.083,5.404-3.845,5.404c-0.652,0-1.022-0.541-0.306-2.953L182.041,23.073z M174.031,37.197l-0.815,2.67
		c-1.791,5.869-4.823,8.523-6.675,8.523c-1.284,0-1.91-0.959-1.91-3.016c0-6.234,4.119-13.907,7.445-13.907
		C173.705,31.468,175.043,33.834,174.031,37.197z" fill="#FFFFFF"></path>
<path d="M160.34,37.838c0-4.232-2.953-7.17-6.164-7.17c-5.383,0-10.018,5.598-10.018,11.344
		c0,4.23,2.952,7.169,6.164,7.169C155.705,49.181,160.34,43.584,160.34,37.838z M147.346,44.76c0-3.217,1.653-9.147,4.113-11.911
		c0.846-0.953,1.817-1.488,2.898-1.488c1.664,0,2.795,1.056,2.795,3.728c0,3.216-1.655,9.147-4.113,11.911
		c-0.847,0.952-1.818,1.488-2.899,1.488C148.477,48.487,147.346,47.432,147.346,44.76z" fill="#FFFFFF"></path>
<path d="M132.98,49.181c5.382,0,10.018-5.597,10.018-11.342c0-4.232-2.953-7.17-6.166-7.17
		c-5.381,0-10.018,5.598-10.018,11.344C126.814,46.242,129.767,49.181,132.98,49.181z M134.115,32.849
		c0.847-0.953,1.819-1.488,2.9-1.488c1.662,0,2.795,1.056,2.795,3.728c0,3.216-1.655,9.147-4.113,11.911
		c-0.847,0.952-1.82,1.488-2.9,1.488c-1.663,0-2.795-1.056-2.795-3.728C130.002,41.543,131.657,35.613,134.115,32.849z" fill="#FFFFFF"></path>
<path d="M123.843,30.769c-1.204,0-2.03,0.971-2.03,2.019c0,1.092,0.939,1.966,1.992,1.966
		c0.729,0,1.312-0.429,1.584-0.924c0.044,0.289,0.076,0.583,0.076,0.894c0,6.193-5.352,13.511-8.645,13.511
		c-1.219,0-2.037-0.809-0.951-3.928l4.068-13.184h-3.705l-2.353,7.672c-2.026,6.451-5.029,9.439-6.818,9.439
		c-1.105,0-1.704-0.842-0.888-3.494l3.979-13.12c0.094-0.321-0.019-0.498-0.265-0.498h-5.942c-0.249,0-0.408,0.162-0.408,0.384
		c0,0.198,0.11,0.307,0.256,0.307h2.58l-3.321,10.853c-1.308,4.254,0.673,6.515,3.603,6.515c2.1,0,4.284-2.167,5.85-5.427
		c-0.545,3.338,1.138,5.427,3.614,5.427c5.361,0,10.192-8.765,10.192-14.613C126.311,31.738,125.256,30.769,123.843,30.769z" fill="#FFFFFF"></path>
<path d="M82.784,42.439c-0.186,0-0.317,0.091-0.41,0.305c-1.962,4.51-3.083,5.404-3.845,5.404
		c-0.652,0-1.021-0.541-0.305-2.953l6.759-22.122c0.093-0.32-0.018-0.5-0.267-0.5h-5.942c-0.25,0-0.407,0.164-0.407,0.387
		c0,0.198,0.11,0.307,0.255,0.307h2.582L74.988,43.6c-1.015,3.723,0.334,5.581,2.797,5.581c1.573,0,3.171-1.173,5.28-6.306
		C83.17,42.615,83.043,42.439,82.784,42.439z" fill="#FFFFFF"></path>
<path d="M73.146,42.439c-0.187,0-0.319,0.091-0.411,0.305c-1.951,4.515-3.083,5.404-3.846,5.404
		c-0.652,0-1.02-0.541-0.303-2.953l6.757-22.122c0.093-0.32-0.017-0.5-0.266-0.5h-5.941c-0.25,0-0.409,0.164-0.409,0.387
		c0,0.198,0.11,0.307,0.255,0.307h2.582L65.35,43.6c-1.016,3.723,0.334,5.581,2.799,5.581c1.573,0,3.166-1.174,5.278-6.306
		C73.533,42.615,73.404,42.439,73.146,42.439z" fill="#FFFFFF"></path>
<path d="M58.143,30.668c-5.381,0-10.016,5.598-10.016,11.344c0,4.23,2.953,7.169,6.165,7.169
		c5.382,0,10.018-5.597,10.018-11.342C64.309,33.606,61.356,30.668,58.143,30.668z M57.008,46.999
		c-0.847,0.952-1.818,1.488-2.899,1.488c-1.664,0-2.794-1.056-2.794-3.728c0-3.217,1.653-9.147,4.111-11.911
		c0.847-0.953,1.82-1.488,2.901-1.488c1.663,0,2.792,1.056,2.792,3.728C61.119,38.305,59.466,44.235,57.008,46.999z" fill="#FFFFFF"></path>
<path d="M46.797,48.038h-3.246l7.571-24.771h3.141c0.25,0,0.409-0.164,0.409-0.387c0-0.198-0.111-0.306-0.256-0.306
		H44.18c-0.25,0-0.408,0.164-0.408,0.387c0,0.198,0.111,0.307,0.255,0.307h3.12l-3.6,11.776H33.29l3.598-11.776h3.03
		c0.25,0,0.409-0.164,0.409-0.387c0-0.198-0.11-0.306-0.256-0.306H29.834c-0.25,0-0.409,0.164-0.409,0.387
		c0,0.198,0.11,0.307,0.256,0.307h3.231L25.34,48.036h-3.125c-0.25,0-0.409,0.162-0.409,0.388c0,0.197,0.112,0.305,0.256,0.305
		h10.236c0.25,0,0.41-0.162,0.41-0.387c0-0.197-0.111-0.306-0.255-0.306h-3.135l3.76-12.304h10.258l-3.761,12.306H36.56
		c-0.249,0-0.407,0.16-0.407,0.386c0,0.197,0.11,0.305,0.256,0.305h10.236c0.25,0,0.407-0.162,0.407-0.387
		C47.052,48.145,46.942,48.038,46.797,48.038z" fill="#FFFFFF"></path>
<path d="M98.15,31.123l-1.703,5.536c-0.091,0.297-0.5,1.609-0.596,1.882c-2.146,6.604-4.884,9.505-6.708,9.675
		c-0.133,0.013-0.262,0.011-0.383-0.003c-0.996-0.117-1.414-1.058-0.847-3.021l4.096-13.572c0.04-0.136,0.013-0.228-0.043-0.275
		c-0.002-0.145-0.449-0.223-0.593-0.223h-5.319c-0.086,0-0.409,0.026-0.456,0.073c-0.123,0.047-0.204,0.164-0.204,0.311
		c0,0.088,0.031,0.149,0.083,0.178c0.028,0.083,0.375,0.125,0.451,0.125h2.125l0.116,0.2l-3.27,10.635
		c-1.277,4.244,0.629,6.438,3.432,6.528c0.137,0.004,0.275,0.002,0.414-0.01c1.846-0.133,3.849-1.906,5.478-5.217
		c0.013-0.023-0.003,0.047,0.009,0.022l-2.698,8.724c-1.331,4.42-2.994,5.955-4.837,6.143c-0.375,0.04-0.743,0.039-1.1,0.006
		c-1.367-0.123-2.304-0.574-2.855-1.284c0.394,0.132,0.854,0.151,1.299,0.015c0.569-0.189,1.002-0.611,1.206-1.16
		c0.149-0.405,0.171-0.847,0.05-1.277c-0.171-0.617-0.641-1.117-1.255-1.322c-0.374-0.123-0.775-0.132-1.167-0.025
		c-0.691,0.187-1.265,0.747-1.455,1.549c-0.083,0.35-0.096,0.721-0.035,1.102c0.272,1.701,1.983,2.979,4.372,3.125
		c0.248,0.016,0.502,0.021,0.76,0.013c3.633-0.104,7.264-2.024,9.164-8.248l6.177-20.205H98.15z" fill="#FFFFFF"></path>
<polygon fill="#FFFFFF" points="114.793,56.247 115.287,54.631 111.443,54.631 111.908,53.125 116.721,53.125 117.223,51.487 
		110.148,51.487 107.713,59.459 114.785,59.459 115.283,57.822 110.456,57.822 110.943,56.247 	"></polygon>
<path d="M104.975,51.487h-4.566l-2.437,7.972h2.25l0.837-2.738h1.818l1.207,2.738h2.373l-1.424-2.959
		c1.344-0.254,2.188-0.93,2.521-2.054l0.061-0.196C108.113,52.623,107.271,51.487,104.975,51.487z M105.338,54.07l-0.021,0.07
		c-0.247,0.804-0.828,1.074-1.743,1.074h-2.054l0.68-2.23h2.23C105.271,52.984,105.554,53.361,105.338,54.07z" fill="#FFFFFF"></path>
<path d="M142.745,51.487h-4.567l-2.437,7.972h2.25l0.838-2.738h1.816l1.209,2.738h2.372l-1.424-2.959
		c1.342-0.254,2.188-0.93,2.522-2.054l0.06-0.196C145.883,52.623,145.041,51.487,142.745,51.487z M143.068,54.07l-0.021,0.07
		c-0.246,0.804-0.787,1.074-1.705,1.074h-2.054l0.682-2.23h2.229C143.04,52.984,143.285,53.361,143.068,54.07z" fill="#FFFFFF"></path>
<path d="M169.846,51.487h-4.565l-2.438,7.972h2.252l0.836-2.738h1.817l1.208,2.738h2.372l-1.423-2.959
		c1.344-0.254,2.187-0.93,2.522-2.054l0.06-0.196C172.982,52.623,172.143,51.487,169.846,51.487z M170.208,54.07l-0.022,0.07
		c-0.244,0.804-0.826,1.074-1.74,1.074h-2.056l0.681-2.23h2.229C170.143,52.984,170.426,53.361,170.208,54.07z" fill="#FFFFFF"></path>
<polygon fill="#FFFFFF" points="161.121,56.247 161.613,54.631 157.77,54.631 158.234,53.125 163.047,53.125 163.549,51.487 
		156.477,51.487 154.037,59.459 161.111,59.459 161.609,57.822 156.782,57.822 157.27,56.247 	"></polygon>
<path d="M123.151,51.487h-4.192l-2.438,7.972h2.25l0.766-2.506h2.582c2.203,0,3.302-0.738,3.792-2.345l0.088-0.286
		C126.488,52.725,125.691,51.487,123.151,51.487z M123.691,54.203l-0.053,0.176c-0.229,0.754-0.801,1.068-1.754,1.068h-1.887
		l0.752-2.463h2.009C123.711,52.984,123.961,53.321,123.691,54.203z" fill="#FFFFFF"></path>
<polygon fill="#FFFFFF" points="154.94,51.487 147.053,51.487 146.551,53.125 149.484,53.125 147.546,59.459 149.809,59.459 
		151.748,53.125 154.441,53.125 	"></polygon>
<path d="M132.122,51.316c-2.759,0-4.276,0.927-4.975,3.207l-0.29,0.957c-0.834,2.72,0.692,4.15,3.28,4.15
		c2.759,0,4.277-0.928,4.976-3.208l0.29-0.956C136.236,52.746,134.711,51.316,132.122,51.316z M133.321,54.959l-0.392,1.258
		c-0.352,1.152-1.056,1.73-2.352,1.73c-1.428,0-2.002-0.761-1.639-1.959l0.391-1.26c0.352-1.151,1.057-1.729,2.353-1.729
		C133.109,52.999,133.685,53.76,133.321,54.959z" fill="#FFFFFF"></path>
<polygon fill="#FFFFFF" points="95.729,28.62 96.477,26.174 98.83,26.174 98.081,28.62 99.852,28.62 101.7,22.574 99.93,22.574 
		99.222,24.885 96.872,24.885 97.577,22.574 95.806,22.574 93.958,28.62 	"></polygon>
<polygon fill="#FFFFFF" points="89.227,28.62 90.995,28.62 92.445,23.881 94.396,23.881 94.797,22.574 88.862,22.574 
		88.461,23.881 90.677,23.881 	"></polygon>
<polygon fill="#FFFFFF" points="106.562,28.62 106.961,27.315 103.396,27.315 103.726,26.25 106.646,26.25 107.041,24.96 
		104.125,24.96 104.458,23.881 108.008,23.881 108.41,22.574 103.08,22.574 101.232,28.62 	"></polygon>
</g>
</svg>