<svg version="1.1" id="Layer_1" xmlns="http://www.w3.org/2000/svg" xmlns:xlink="http://www.w3.org/1999/xlink" x="0px" y="0px" viewBox="0 0 452.8 59.5" style="enable-background:new 0 0 452.8 59.5;" xml:space="preserve">
 <g>
  <path d="M33.9,6.1c0-4.9-4.7-6.1-8.4-6.1v0.7c2.2,0,3.9,0.7,3.9,2.5c0,1-0.7,2.5-3,2.5c-1.7,0-5.4-1-8.1-2
		c-3.2-1.2-6.1-2.2-8.6-2.2c-4.9,0-8.4,3.7-8.4,7.9c0,3.7,2.7,4.9,3.7,5.4l0.2-0.5c-0.5-0.5-1.2-1-1.2-2.5c0-1,1-2.7,3.4-2.7
		c2.2,0,5.2,1,9.1,2.2c3.4,1,7.1,1.7,9.1,2v7.6l-3.7,3.2v0.2l3.7,3.2v10.6c-2,1.2-4.2,1.5-6.1,1.5c-3.7,0-6.9-1-9.6-3.9l10.1-4.9
		v-17L7.9,19.2c1-3.2,3.7-5.4,6.4-6.9L14,11.6c-7.4,2-14,8.9-14,17.2C0,38.6,8.1,46,17.2,46c9.8,0,16.2-7.9,16.2-16H33
		c-1.5,3.2-3.7,6.1-6.4,7.6V27.5l3.9-3.2v-0.2l-3.9-3.2v-7.6C30.3,13.3,33.9,10.8,33.9,6.1z M12.5,33.2l-3,1.5
		c-1.7-2.2-2.7-5.2-2.7-9.3c0-1.7,0-3.7,0.5-5.2l5.2-2.2V33.2z M38.6,38.9l-3.2,2.5l0.5,0.5l1.5-1.2l5.4,4.9l7.4-4.9l-0.2-0.5
		l-2,1.2l-2.5-2.5V22.1l2-1.5l4.2,3.4v15c0,9.3-2,10.8-6.1,12.3v0.7c6.9,0.2,13.3-2,13.3-14V21.9l2.2-1.7l-0.5-0.5l-2,1.5L52.4,16
		l-6.9,5.2V1H45l-8.6,5.9v0.5c1,0.5,2.5,1,2.5,3.7C38.9,11.1,38.6,38.9,38.6,38.9z M83.6,36.2l-6.1,4.7l-6.1-4.9v-3l11.6-7.9v-0.2
		L77,16l-12.8,6.9v16.2l-2.5,2l0.5,0.5l2.2-1.7l8.4,6.1l11.1-8.9C83.9,37.1,83.6,36.2,83.6,36.2z M71.3,32V19.9l0.5-0.2l5.4,8.6
		C77.2,28.3,71.3,32,71.3,32z M130.6,3.9c0-0.7-0.2-1.5-0.5-2.2h-0.5c-0.7,2-1.7,3-4.2,3c-2.2,0-3.7-1.2-4.7-2.2l-7.1,8.1l0.5,0.5
		l2.5-2.2c1.5,1.2,2.7,2.2,6.1,2.5v20.4L108.2,6.9c-1.2-2-3-4.7-6.4-4.7c-3.9,0-7.4,3.4-6.9,8.9h0.7c0.2-1.5,1-3.2,2.7-3.2
		c1.2,0,2.5,1.2,3.2,2.5v8.1c-4.4,0-7.4,2-7.4,5.7c0,2,1,4.9,3.9,5.7v-0.5c-0.5-0.5-0.7-1-0.7-1.7c0-1.2,1-2.2,2.7-2.2h1.2v10.3
		c-5.2,0-9.3,3-9.3,7.9c0,4.7,3.9,6.9,8.4,6.6v-0.5c-2.7-0.2-3.9-1.5-3.9-3.2c0-2.2,1.5-3.2,3.4-3.2c2,0,3.7,1.2,4.9,2.7l7.1-7.9
		l-0.5-0.5l-1.7,2c-2.7-2.5-4.2-3.2-7.4-3.7V11.3L122,45.7h1.5V11.3C127.1,11.1,130.6,8.1,130.6,3.9z M148.5,36.2l-6.1,4.7l-6.1-4.9
		v-3l11.6-7.9v-0.2l-5.9-8.9l-12.8,6.9v16.2l-2.5,2l0.5,0.5l2.2-1.7l8.4,6.1l11.1-8.9C148.8,37.1,148.5,36.2,148.5,36.2z M136.2,32
		V19.9l0.5-0.2l5.4,8.6C142.2,28.3,136.2,32,136.2,32z M188.6,18.7l-1.7,1.2l-4.7-3.9l-5.4,4.9l2.2,2.2v18.4l-5.9-3.7V22.6l2-1.2
		l-5.7-5.4l-5.4,4.9l2.2,2.2v17.7l-0.7,0.5l-5.2-3.7V22.9c0-3.4-1.7-4.4-3.7-5.7c-1.7-1.2-2.7-2-2.7-3.7c0-1.5,1.5-2.2,2.2-2.7v-0.5
		c-2,0-7.1,2-7.1,6.6c0,2.5,1.2,3.4,2.5,4.7c1.2,1.2,2.5,2.2,2.5,4.4v14.3l-2.7,2l0.5,0.5l2.5-2l5.7,4.9l6.1-4.2l6.9,4.2l13-7.6
		V21.6l3.2-2.5L188.6,18.7L188.6,18.7z M234.4,5.2l-2.5,2.2l-5.4-4.9l-8.1,5.9V3h-0.7l0.2,39.8c-0.7,0-3-0.5-4.7-1l-0.5-33.2
		c0-2.5-1.7-5.9-6.1-5.9s-7.4,3.4-7.4,6.9h0.7c0.2-1.5,1-2.7,2.5-2.7c1.5,0,2.7,1,2.7,4.2v9.6c-4.4,0.2-7.1,2.7-7.1,5.9
		c0,2,1,4.9,3.9,4.9V31c-1-0.5-1.2-1.2-1.2-1.7c0-1.5,1.2-2,3.2-2h1v15.2c-3.7,1.2-5.2,3.9-5.2,6.9c0,4.2,3.2,7.1,8.1,7.1
		c3.4,0,6.4-0.5,9.3-1.2c2.5-0.5,5.7-1.2,7.1-1.2c2,0,2.7,1,2.7,2.2c0,1.7-0.7,2.5-1.7,2.7v0.5c3.9-0.7,6.4-3.2,6.4-6.9
		s-3.7-5.9-7.6-5.9c-2,0-6.1,0.7-9.1,1.2c-3.4,0.7-6.9,1.2-7.9,1.2c-1.7,0-3.7-0.7-3.7-3.2c0-2,1.7-3.7,5.9-3.7c2.2,0,4.9,0.2,7.6,1
		c3,0.7,5.7,1.5,8.1,1.5c3.7,0,6.9-1.2,6.9-6.4V8.1l3-2.5L234.4,5.2L234.4,5.2z M224.3,20.2c-0.7,0.7-1.7,1.5-3,1.5s-2.5-0.7-3-1.5
		V9.3l2.5-1.7l3.4,3.2C224.3,10.8,224.3,20.2,224.3,20.2z M224.3,27.5c-0.5-0.5-1.7-1.2-3-1.2s-2.5,0.7-3,1.2v-6.4
		c0.5,0.5,1.7,1.2,3,1.2s2.5-0.7,3-1.2V27.5z M224.3,39.1c0,2-1.2,3.9-3.9,3.9h-2V28.5c0.5-0.5,1.7-1.2,3-1.2s2.2,0.7,3,1.2
		C224.3,28.5,224.3,39.1,224.3,39.1z M258,21.6l-7.9-5.7l-12.1,6.9v16l-2.5,2l0.2,0.5l2-1.5l7.9,5.9l12.3-7.4
		C258,38.4,258,21.6,258,21.6z M244.7,37.1V19.4l6.1,4.4v17.5C250.9,41.3,244.7,37.1,244.7,37.1z M281.4,16.5h-0.5
		c-0.7,0.5-1.5,1-2.2,1c-1,0-2.2-0.5-2.7-1.2h-0.5l-4.2,4.7l-4.2-4.7l-7.4,4.9l0.2,0.5l2-1.2l2.5,2.7v15.5l-3.2,2.5l0.5,0.5l1.5-1.2
		l5.9,4.9l7.6-5.2l-0.2-0.5l-2.2,1.2l-3-2.5V21.2c1.2,1.2,2.7,2.5,4.4,2.5C279.1,23.9,281.1,20.4,281.4,16.5L281.4,16.5z
		 M310.9,40.1l-8.4,5.7l-11.3-17.2l8.1-12.5h0.5c1,1,2.5,2,4.2,2c1.7,0,3-1,3.7-2h0.5c-0.2,4.9-3.7,7.9-6.1,7.9
		c-2.5,0-3.7-1.2-5.2-2l-0.7,1.2l12.3,18.2l2.5-1.5V40.1z M283.8,38.9l-3.2,2.5l0.5,0.5l1.5-1.2l5.4,4.9l7.4-4.9l-0.5-0.5l-2,1.2
		l-2.5-2.5V1h-0.2l-8.9,5.9v0.5c1,0.5,2.5,0.7,2.5,3.7C283.8,11.1,283.8,38.9,283.8,38.9z M351.7,6.1c0-4.9-4.7-6.1-8.4-6.1v0.7
		c2.2,0,3.9,0.7,3.9,2.5c0,1-0.7,2.5-3,2.5c-1.7,0-5.4-1-8.1-2c-3.2-1-6.1-2-8.6-2c-4.9,0-8.4,3.7-8.4,7.9c0,3.7,2.7,4.9,3.7,5.4
		l0.2-0.5c-0.7-0.5-1.5-1-1.5-2.5c0-1,1-2.7,3.4-2.7c2.2,0,5.2,1,9.1,2.2c3.4,1,7.1,1.7,9.1,2v7.6l-3.7,3.2v0.2l3.7,3.2v10.6
		c-2,1.2-4.2,1.5-6.1,1.5c-3.7,0-6.9-1-9.6-3.9l10.1-4.9V13.8l-12.3,5.4c1.2-3.2,3.9-5.4,6.4-7.1l-0.2-0.5c-7.4,2-14,8.6-14,17
		c0,9.8,8.1,17.2,17.2,17.2c9.8,0,16.2-7.9,16.2-16h-0.5c-1.5,3.2-3.7,6.1-6.4,7.6V27.3l3.9-3.2v-0.2l-3.7-3.2v-7.4
		C348,13.3,351.7,10.8,351.7,6.1z M330.3,33.2l-3,1.5c-1.7-2.2-2.7-5.2-2.7-9.3c0-1.7,0.2-3.7,0.7-5.2l5.2-2.2L330.3,33.2z
		 M360.3,3.7H360l-4.9,4.2v0.2l4.2,4.7h0.5l4.9-4.2V8.4L360.3,3.7L360.3,3.7z M367.7,40.1l-2,1.2l-2.5-2.5v-17l2.5-1.7l-0.5-0.5
		l-1.7,1.5l-4.4-5.2l-7.1,4.9l0.5,0.7l1.7-1.2l2.2,2.7v16l-3.2,2.5l0.2,0.5l1.7-1.2l5.4,4.9l7.4-4.9L367.7,40.1L367.7,40.1z
		 M408.7,39.8l-1.7,1.2l-2.7-2.5V21.9l2.5-2l-0.5-0.5l-2,1.7l-5.7-5.2l-7.4,5.2l-5.7-5.2l-6.9,5.2l-4.4-5.2l-7.1,4.9l0.2,0.7
		l1.7-1.2l2.5,2.7v16l-2,2l5.7,4.7l5.4-4.9l-2.2-2.2V21.9l2.2-1.5l3.7,3.4v14.8l-2,2l5.7,4.7l5.4-4.9l-2.2-2.2V21.9l2-1.2l3.9,3.4
		v14.8l-1.7,1.7l5.7,5.2l7.6-5.2L408.7,39.8L408.7,39.8z M430.1,36.2l-6.1,4.7l-6.1-4.9v-3l11.6-7.9v-0.2l-5.9-8.9l-12.8,6.9v16.7
		l8.6,6.1l11.1-8.9C430.4,36.9,430.1,36.2,430.1,36.2z M417.8,32V19.9l0.5-0.2l5.4,8.6C423.7,28.3,417.8,32,417.8,32z M452.5,29.8
		l-4.7-3.7c3.2-2.7,4.4-6.4,4.4-8.9v-1.5h-0.5c-0.5,1.2-1.5,2.5-3.4,2.5c-2,0-3.2-1-4.4-2.5l-11.1,6.1v8.9l4.2,3.2
		c-4.2,3.7-4.9,6.1-4.9,8.1c0,2.5,1.2,4.2,3.2,4.9l0.2-0.5c-0.5-0.5-1-0.7-1-2c0-0.7,1-2,3-2c2.5,0,3.9,1.7,4.7,2.5l10.6-6.4v-8.9
		C452.8,29.8,452.5,29.8,452.5,29.8z M449.8,22.4c-1.7,3-5.4,5.9-7.6,7.4l-2.7-2.2v-8.6c1,2.5,3.7,4.4,6.4,4.4
		C447.6,23.4,448.6,23.1,449.8,22.4z M445.6,42.1c-1.2-2.7-4.2-4.7-7.1-4.7c-0.7,0-2.7,0-4.7,1.2c1.2-2,4.4-5.4,8.6-7.9l3,2.5
		L445.6,42.1L445.6,42.1z">
  </path>
 </g>
</svg>