<?xml version="1.0" encoding="UTF-8" standalone="no"?>
<!-- Created with Inkscape (http://www.inkscape.org/) -->

<svg
   xmlns:dc="http://purl.org/dc/elements/1.1/"
   xmlns:cc="http://creativecommons.org/ns#"
   xmlns:rdf="http://www.w3.org/1999/02/22-rdf-syntax-ns#"
   xmlns:svg="http://www.w3.org/2000/svg"
   xmlns="http://www.w3.org/2000/svg"
   xmlns:sodipodi="http://sodipodi.sourceforge.net/DTD/sodipodi-0.dtd"
   xmlns:inkscape="http://www.inkscape.org/namespaces/inkscape"
   version="1.1"
   width="300"
   height="70.28862"
   id="svg9977"
   inkscape:version="0.48.2 r9819"
   sodipodi:docname="The Hollywood Reporter logo.svg">
  <sodipodi:namedview
     pagecolor="#ffffff"
     bordercolor="#666666"
     borderopacity="1"
     objecttolerance="10"
     gridtolerance="10"
     guidetolerance="10"
     inkscape:pageopacity="0"
     inkscape:pageshadow="2"
     inkscape:window-width="1061"
     inkscape:window-height="902"
     id="namedview47"
     showgrid="false"
     inkscape:zoom="3.0118229"
     inkscape:cx="192.46938"
     inkscape:cy="-54.809457"
     inkscape:window-x="1191"
     inkscape:window-y="55"
     inkscape:window-maximized="0"
     inkscape:current-layer="svg9977" />
  <defs
     id="defs9979" />
  <metadata
     id="metadata9982">
    <rdf:RDF>
      <cc:Work
         rdf:about="">
        <dc:format>image/svg+xml</dc:format>
        <dc:type
           rdf:resource="http://purl.org/dc/dcmitype/StillImage" />
        <dc:title />
      </cc:Work>
    </rdf:RDF>
  </metadata>
  <g
     transform="translate(-132.30464,-516.37198)"
     id="layer1"
     style="fill:#ff1817;fill-opacity:1">
    <g
       transform="matrix(4.6146484,0,0,4.6146484,-2062.5975,-4065.3743)"
       id="g9884"
       style="fill:#ff1817;fill-opacity:1">
      <g
         transform="matrix(1.25,0,0,-1.25,513.47987,1006.707)"
         id="g5621"
         style="fill:#ff1817;fill-opacity:1">
        <path
           d="m 0,0 0.165,0.542 -1.286,0 0.157,0.504 1.565,0 0.167,0.549 -2.32,0 -0.815,-2.671 2.32,0 0.167,0.548 -1.57,0 L -1.287,0 0,0 z"
           id="path5623"
           style="fill:#ff1817;fill-opacity:1;fill-rule:nonzero;stroke:none" />
      </g>
      <g
         transform="matrix(1.25,0,0,-1.25,509.3815,1004.7133)"
         id="g5633"
         style="fill:#ff1817;fill-opacity:1">
        <path
           d="m 0,0 -1.409,0 -0.815,-2.671 0.753,0 0.279,0.918 0.526,0 0.39,-0.918 0.798,0 -0.475,0.987 c 0.451,0.085 0.729,0.315 0.842,0.693 l 0.02,0.064 C 1.08,-0.364 0.729,0 0,0 M 0.147,-0.866 0.141,-0.89 C 0.057,-1.158 -0.137,-1.249 -0.443,-1.249 l -0.596,0 0.229,0.747 0.654,0 c 0.281,0 0.376,-0.127 0.303,-0.364"
           id="path5635"
           style="fill:#ff1817;fill-opacity:1;fill-rule:nonzero;stroke:none" />
      </g>
      <g
         transform="matrix(1.25,0,0,-1.25,524.55087,1004.7133)"
         id="g5637"
         style="fill:#ff1817;fill-opacity:1">
        <path
           d="m 0,0 -1.409,0 -0.815,-2.671 0.753,0 0.279,0.918 0.526,0 0.39,-0.918 0.798,0 -0.475,0.987 c 0.451,0.085 0.729,0.315 0.842,0.693 l 0.02,0.064 C 1.08,-0.364 0.729,0 0,0 M 0.147,-0.866 0.141,-0.89 C 0.057,-1.158 -0.137,-1.249 -0.443,-1.249 l -0.596,0 0.229,0.747 0.654,0 c 0.281,0 0.376,-0.127 0.303,-0.364"
           id="path5639"
           style="fill:#ff1817;fill-opacity:1;fill-rule:nonzero;stroke:none" />
      </g>
      <g
         transform="matrix(1.25,0,0,-1.25,532.01611,1006.707)"
         id="g5641"
         style="fill:#ff1817;fill-opacity:1">
        <path
           d="m 0,0 0.165,0.542 -1.286,0 0.157,0.504 1.565,0 0.167,0.549 -2.32,0 -0.815,-2.671 2.32,0 0.167,0.548 -1.57,0 L -1.287,0 0,0 z"
           id="path5643"
           style="fill:#ff1817;fill-opacity:1;fill-rule:nonzero;stroke:none" />
      </g>
      <g
         transform="matrix(1.25,0,0,-1.25,516.78938,1004.7133)"
         id="g5645"
         style="fill:#ff1817;fill-opacity:1">
        <path
           d="m 0,0 -1.315,0 -0.814,-2.671 0.753,0 0.255,0.84 0.775,0 c 0.738,0 1.104,0.247 1.269,0.786 L 0.952,-0.95 C 1.116,-0.415 0.849,0 0,0 M 0.181,-0.91 0.163,-0.969 C 0.086,-1.222 -0.105,-1.328 -0.424,-1.328 l -0.543,0 0.252,0.826 0.584,0 c 0.318,0 0.402,-0.113 0.312,-0.408"
           id="path5647"
           style="fill:#ff1817;fill-opacity:1;fill-rule:nonzero;stroke:none" />
      </g>
      <g
         transform="matrix(1.25,0,0,-1.25,529.34225,1005.3993)"
         id="g5649"
         style="fill:#ff1817;fill-opacity:1">
        <path
           d="m 0,0 0.167,0.548 -2.593,0 L -2.594,0 l 0.938,0 -0.649,-2.123 0.757,0 L -0.9,0 0,0 z"
           id="path5651"
           style="fill:#ff1817;fill-opacity:1;fill-rule:nonzero;stroke:none" />
      </g>
      <g
         transform="matrix(1.25,0,0,-1.25,535.42224,1004.7133)"
         id="g5653"
         style="fill:#ff1817;fill-opacity:1">
        <path
           d="m 0,0 -1.409,0 -0.815,-2.671 0.753,0 0.279,0.918 0.516,0 0.4,-0.918 0.798,0 -0.474,0.987 c 0.45,0.085 0.728,0.315 0.841,0.693 l 0.02,0.064 C 1.08,-0.364 0.729,0 0,0 M 0.147,-0.866 0.141,-0.89 C 0.057,-1.158 -0.137,-1.249 -0.443,-1.249 l -0.596,0 0.229,0.747 0.654,0 c 0.281,0 0.376,-0.127 0.303,-0.364"
           id="path5655"
           style="fill:#ff1817;fill-opacity:1;fill-rule:nonzero;stroke:none" />
      </g>
      <g
         transform="matrix(1.25,0,0,-1.25,520.36,1004.6418)"
         id="g5657"
         style="fill:#ff1817;fill-opacity:1">
        <path
           d="M 0,0 C -0.918,0 -1.405,-0.334 -1.638,-1.099 L -1.71,-1.336 c -0.286,-0.936 0.25,-1.391 1.083,-1.391 0.918,0 1.405,0.333 1.639,1.098 l 0.07,0.237 C 1.368,-0.455 0.833,0 0,0 M 0.388,-1.221 0.276,-1.584 c -0.118,-0.386 -0.331,-0.579 -0.765,-0.579 -0.476,0 -0.647,0.254 -0.526,0.656 l 0.112,0.364 c 0.118,0.386 0.332,0.579 0.764,0.579 0.478,0 0.648,-0.255 0.527,-0.657"
           id="path5659"
           style="fill:#ff1817;fill-opacity:1;fill-rule:nonzero;stroke:none" />
      </g>
      <g
         transform="matrix(1.25,0,0,-1.25,510.28537,993.47195)"
         id="g5661"
         style="fill:#ff1817;fill-opacity:1">
        <path
           d="m 0,0 0.137,0.445 -1.645,0 -0.627,-2.058 1.644,0 0.136,0.445 -1.054,0 0.112,0.362 0.835,0 0.133,0.439 -0.833,0 L -1.048,0 0,0 z"
           id="path5663"
           style="fill:#ff1817;fill-opacity:1;fill-rule:nonzero;stroke:none" />
      </g>
      <g
         transform="matrix(1.25,0,0,-1.25,505.004,993.47195)"
         id="g5665"
         style="fill:#ff1817;fill-opacity:1">
        <path
           d="m 0,0 0.136,0.445 -1.859,0 L -1.858,0 l 0.664,0 -0.492,-1.613 0.591,0 L -0.603,0 0,0 z"
           id="path5667"
           style="fill:#ff1817;fill-opacity:1;fill-rule:nonzero;stroke:none" />
      </g>
      <g
         transform="matrix(1.25,0,0,-1.25,507.13387,992.91632)"
         id="g5669"
         style="fill:#ff1817;fill-opacity:1">
        <path
           d="m 0,0 -0.24,-0.786 -0.68,0 0.24,0.786 -0.593,0 -0.628,-2.057 0.593,0 0.254,0.832 0.681,0 -0.255,-0.832 0.593,0 L 0.593,0 0,0 z"
           id="path5671"
           style="fill:#ff1817;fill-opacity:1;fill-rule:nonzero;stroke:none" />
      </g>
      <g
         transform="matrix(1.25,0,0,-1.25,522.23437,996.23719)"
         id="g5673"
         style="fill:#ff1817;fill-opacity:1">
        <path
           d="m 0,0 c -1.763,0 -3.274,-1.837 -3.274,-3.723 0,-1.388 0.969,-2.354 2.022,-2.354 1.763,0 3.275,1.838 3.275,3.724 C 2.023,-0.965 1.052,0 0,0 m -0.479,-5.545 c -0.241,-0.241 -0.512,-0.401 -0.87,-0.401 -0.512,0 -0.881,0.314 -0.881,1.275 0,1.111 0.582,3.262 1.458,4.139 0.239,0.241 0.511,0.401 0.869,0.401 0.512,0 0.881,-0.314 0.881,-1.275 0,-1.111 -0.581,-3.261 -1.457,-4.139"
           id="path5675"
           style="fill:#ff1817;fill-opacity:1;fill-rule:nonzero;stroke:none" />
      </g>
      <g
         transform="matrix(1.25,0,0,-1.25,490.42474,996.23719)"
         id="g5677"
         style="fill:#ff1817;fill-opacity:1">
        <path
           d="m 0,0 c -1.763,0 -3.274,-1.837 -3.274,-3.723 0,-1.388 0.969,-2.354 2.022,-2.354 1.763,0 3.275,1.838 3.275,3.724 C 2.023,-0.965 1.052,0 0,0 m -0.479,-5.545 c -0.241,-0.241 -0.512,-0.401 -0.87,-0.401 -0.512,0 -0.881,0.314 -0.881,1.275 0,1.111 0.582,3.262 1.458,4.139 0.239,0.241 0.511,0.401 0.869,0.401 0.512,0 0.881,-0.314 0.881,-1.275 0,-1.111 -0.581,-3.261 -1.457,-4.139"
           id="path5679"
           style="fill:#ff1817;fill-opacity:1;fill-rule:nonzero;stroke:none" />
      </g>
      <g
         transform="matrix(1.25,0,0,-1.25,529.25437,996.23719)"
         id="g5681"
         style="fill:#ff1817;fill-opacity:1">
        <path
           d="m 0,0 c -1.763,0 -3.274,-1.837 -3.274,-3.723 0,-1.388 0.969,-2.354 2.022,-2.354 1.763,0 3.275,1.838 3.275,3.724 C 2.023,-0.965 1.052,0 0,0 m -0.479,-5.545 c -0.241,-0.241 -0.512,-0.401 -0.87,-0.401 -0.512,0 -0.881,0.314 -0.881,1.275 0,1.111 0.582,3.262 1.458,4.139 0.239,0.241 0.511,0.401 0.869,0.401 0.512,0 0.881,-0.314 0.881,-1.275 0,-1.111 -0.581,-3.261 -1.457,-4.139"
           id="path5683"
           style="fill:#ff1817;fill-opacity:1;fill-rule:nonzero;stroke:none" />
      </g>
      <g
         transform="matrix(1.25,0,0,-1.25,517.00087,996.27858)"
         id="g5685"
         style="fill:#ff1817;fill-opacity:1">
        <path
           d="m 0,0 c -0.394,0 -0.665,-0.319 -0.665,-0.663 0,-0.358 0.308,-0.645 0.652,-0.645 0.309,0 0.549,0.211 0.62,0.44 0.025,-0.137 0.036,-0.28 0.036,-0.43 0,-1.987 -1.698,-4.527 -2.943,-4.527 -0.414,0 -0.702,0.258 -0.312,1.381 l 1.333,4.328 -1.214,0 -0.862,-2.809 c -0.63,-2.009 -1.565,-2.9 -2.114,-2.9 -0.383,0 -0.614,0.278 -0.318,1.239 l 1.354,4.47 -0.031,0.038 c -0.222,-0.018 -0.735,-0.038 -1.349,-0.038 l -0.722,0 -0.08,-0.075 0.042,-0.049 0.883,0 -1.119,-3.666 c -0.429,-1.394 0.22,-2.137 1.18,-2.137 0.68,0 1.409,0.753 1.93,1.897 -0.237,-1.164 0.328,-1.897 1.169,-1.897 1.756,0 3.338,2.877 3.338,4.797 C 0.808,-0.318 0.462,0 0,0"
           id="path5687"
           style="fill:#ff1817;fill-opacity:1;fill-rule:nonzero;stroke:none" />
      </g>
      <g
         transform="matrix(1.25,0,0,-1.25,485.91175,1003.4923)"
         id="g5689"
         style="fill:#ff1817;fill-opacity:1">
        <path
           d="m 0,0 -1.134,0 2.543,8.337 1.041,0 0.08,0.075 -0.042,0.049 -3.39,0 -0.08,-0.076 0.042,-0.048 1.047,0 -1.243,-4.072 -3.359,0 1.243,4.072 0.953,0 0.08,0.075 -0.042,0.049 -3.39,0 -0.08,-0.076 0.042,-0.048 1.134,0 L -7.098,0 l -1.041,0 -0.08,-0.075 0.042,-0.049 3.39,0 0.081,0.075 -0.043,0.049 -1.046,0 1.263,4.141 3.359,0 L -2.436,0 -3.39,0 l -0.08,-0.075 0.042,-0.049 3.39,0 0.081,0.075 L 0,0 z"
           id="path5691"
           style="fill:#ff1817;fill-opacity:1;fill-rule:nonzero;stroke:none" />
      </g>
      <g
         transform="matrix(1.25,0,0,-1.25,496.55837,1001.0877)"
         id="g5693"
         style="fill:#ff1817;fill-opacity:1">
        <path
           d="m 0,0 -0.062,-0.043 c -0.707,-1.626 -1.1,-1.883 -1.355,-1.883 -0.252,0 -0.389,0.179 -0.134,1.038 L 0.712,6.537 0.681,6.574 C 0.459,6.557 -0.053,6.537 -0.667,6.537 l -0.723,0 -0.08,-0.075 0.042,-0.049 0.884,0 -2.067,-6.777 c -0.337,-1.241 0.126,-1.832 0.926,-1.832 0.498,0 1.004,0.334 1.739,2.116 L 0,0 z"
           id="path5695"
           style="fill:#ff1817;fill-opacity:1;fill-rule:nonzero;stroke:none" />
      </g>
      <g
         transform="matrix(1.25,0,0,-1.25,500.42487,1001.0877)"
         id="g5697"
         style="fill:#ff1817;fill-opacity:1">
        <path
           d="m 0,0 -0.062,-0.043 c -0.707,-1.626 -1.1,-1.883 -1.355,-1.883 -0.252,0 -0.389,0.179 -0.134,1.038 L 0.712,6.537 0.681,6.574 C 0.459,6.557 -0.053,6.537 -0.667,6.537 l -0.723,0 -0.08,-0.075 0.042,-0.049 0.884,0 -2.067,-6.777 c -0.337,-1.241 0.126,-1.832 0.926,-1.832 0.498,0 1.004,0.334 1.739,2.116 L 0,0 z"
           id="path5699"
           style="fill:#ff1817;fill-opacity:1;fill-rule:nonzero;stroke:none" />
      </g>
      <g
         transform="matrix(1.25,0,0,-1.25,505.60975,999.53545)"
         id="g5701"
         style="fill:#ff1817;fill-opacity:1">
        <path
           d="m 0,0 c -0.724,-2.375 -1.655,-3.219 -2.229,-3.219 -0.388,0 -0.588,0.309 -0.362,1.09 l 1.39,4.619 -0.03,0.037 C -1.452,2.51 -1.966,2.49 -2.58,2.49 l -0.722,0 -0.08,-0.075 0.043,-0.049 0.883,0 -1.122,-3.658 c -0.428,-1.426 0.234,-2.146 1.185,-2.146 0.652,0 1.354,0.628 1.91,1.835 L -1.405,-4.591 C -1.906,-6.26 -2.5,-6.725 -3.138,-6.725 c -0.677,0 -1.176,0.237 -1.392,0.606 0.099,-0.09 0.253,-0.155 0.427,-0.155 0.391,0.013 0.682,0.311 0.682,0.692 0,0.372 -0.298,0.688 -0.678,0.688 -0.373,0 -0.697,-0.306 -0.697,-0.756 0,-0.682 0.677,-1.203 1.641,-1.203 1.225,0 2.468,0.607 3.108,2.711 L 1.976,2.49 0.762,2.49 0,0 z"
           id="path5703"
           style="fill:#ff1817;fill-opacity:1;fill-rule:nonzero;stroke:none" />
      </g>
      <g
         transform="matrix(1.25,0,0,-1.25,540.64837,992.91632)"
         id="g5705"
         style="fill:#ff1817;fill-opacity:1">
        <path
           d="M 0,0 -0.031,0.037 C -0.252,0.02 -0.765,0 -1.379,0 l -0.723,0 -0.079,-0.075 0.042,-0.049 0.884,0 -1.133,-3.724 c -0.029,0.731 -0.473,1.192 -1.113,1.192 -1.594,0 -3.305,-2.008 -3.305,-3.915 0,-1.496 0.835,-2.162 1.601,-2.162 0.665,0 1.357,0.521 1.852,1.55 -0.194,-1.067 0.264,-1.55 0.956,-1.55 0.499,0 1.004,0.334 1.74,2.116 l -0.055,0.08 -0.062,-0.043 c -0.707,-1.626 -1.1,-1.883 -1.355,-1.883 -0.252,0 -0.389,0.179 -0.134,1.038 L 0,0 z M -2.624,-4.639 -3.009,-5.89 c -0.667,-2.187 -1.593,-2.712 -2.106,-2.712 -0.459,0 -0.637,0.329 -0.637,1.095 0,2.143 1.391,4.701 2.436,4.701 0.529,0 1.029,-0.71 0.692,-1.833"
           id="path5707"
           style="fill:#ff1817;fill-opacity:1;fill-rule:nonzero;stroke:none" />
      </g>
    </g>
  </g>
</svg>
