<?xml version="1.0" encoding="UTF-8" standalone="no"?>
<!-- Created with Inkscape (http://www.inkscape.org/) -->

<svg
   xmlns:dc="http://purl.org/dc/elements/1.1/"
   xmlns:cc="http://creativecommons.org/ns#"
   xmlns:rdf="http://www.w3.org/1999/02/22-rdf-syntax-ns#"
   xmlns:svg="http://www.w3.org/2000/svg"
   xmlns="http://www.w3.org/2000/svg"
   xmlns:sodipodi="http://sodipodi.sourceforge.net/DTD/sodipodi-0.dtd"
   xmlns:inkscape="http://www.inkscape.org/namespaces/inkscape"
   width="232.02475mm"
   height="26.45833mm"
   viewBox="0 0 232.02475 26.45833"
   version="1.1"
   id="svg5774"
   inkscape:version="0.92.1 r15371"
   sodipodi:docname="The_Globe_and_Mail_(2019-10-31).svg">
  <defs
     id="defs5768" />
  <sodipodi:namedview
     id="base"
     pagecolor="#ffffff"
     bordercolor="#666666"
     borderopacity="1.0"
     inkscape:pageopacity="0.0"
     inkscape:pageshadow="2"
     inkscape:zoom="0.35"
     inkscape:cx="438.47196"
     inkscape:cy="50"
     inkscape:document-units="mm"
     inkscape:current-layer="layer1"
     showgrid="false"
     fit-margin-top="0"
     fit-margin-left="0"
     fit-margin-right="0"
     fit-margin-bottom="0"
     inkscape:window-width="1920"
     inkscape:window-height="1001"
     inkscape:window-x="-9"
     inkscape:window-y="-9"
     inkscape:window-maximized="1" />
  <metadata
     id="metadata5771">
    <rdf:RDF>
      <cc:Work
         rdf:about="">
        <dc:format>image/svg+xml</dc:format>
        <dc:type
           rdf:resource="http://purl.org/dc/dcmitype/StillImage" />
        <dc:title></dc:title>
      </cc:Work>
    </rdf:RDF>
  </metadata>
  <g
     inkscape:label="Ebene 1"
     inkscape:groupmode="layer"
     id="layer1"
     transform="translate(220.3338,-135.60417)">
    <path
       style="clip-rule:nonzero;fill:#cf1e21;fill-opacity:1;fill-rule:evenodd;stroke:none;stroke-width:0.35900429"
       d="M -220.3338,135.60417 H 11.690946 V 162.0625 H -220.3338 v -26.45833"
       id="path3642"
       inkscape:connector-curvature="0" />
    <path
       inkscape:connector-curvature="0"
       id="path3646"
       d="m 7.1879664,145.65909 c 0.50064,-0.31974 0.82459,-0.75727 0.79514,-0.90452 -0.087,-0.11079 -0.2945,-0.0856 -0.55674,0.0617 -0.2945,0.14304 -0.67734,0.0575 -0.88489,-0.26645 -0.20334,-0.32254 -0.4151,-0.26224 -0.67734,-0.0533 -0.26364,0.20054 -0.79374,0.49504 -1.03214,0 -0.14724,-0.55673 -0.0911,-0.40949 0.32395,-1.17377 0.4151,-0.76148 0.50064,-1.37151 0.50064,-1.49071 0,-0.11499 -0.0561,-0.1753 -0.44034,0 -0.32395,0.087 -0.3534,-1.5468 -0.38425,-1.7838 0,0 0,-0.43754 -0.26364,-0.0575 -0.20615,0.26645 -1.03074,1.05177 -1.29859,1.14152 -0.25803,0.087 -0.64228,-0.14725 -0.58618,-0.46698 0,-0.32255 -0.20756,-0.20755 -0.2973,0 -0.087,0.20194 -0.7082,2.19048 -0.85124,2.30828 -0.15005,0.11499 -0.26785,0.40949 -0.53009,-0.0855 -0.26363997,-0.50205 -0.72921997,-1.68003 -1.16115997,-1.09805 -0.11639,-0.11219 -0.87226003,-1.1275 -1.48930003,-1.15695 -0.0912,0.1192 0.0561,0.40949 0.17669,0.49924 0.1164,0.14444 0.1164,0.55674 0,0.84422 -0.1206,0.2945 -0.1206,0.67454 0.0308,1.02653 0.0855,0.1753 -0.0308,0.46699 -0.53571,0.52729 -0.49643,0.0575 -0.40948,0.20194 -0.20194,0.46278 0.20194,0.26645 0.97044,0.90873 1.14713,1.14292 0.17249003,0.237 -0.0294,0.52308 -0.38424,0.55253 -0.3534,0.0323 -0.67314,-0.087 -0.76289,0.12201 -0.0308,0.20474 0.26224,0.11499 0.38425,0.29028 0,0 0.64649,1.16677 1.50052003,1.11348 0.85124,-0.0575 0.8891,0.0505 0.79515,0.40949 -0.087,0.30431 -0.7727,1.29578 -1.41639,1.37431 0,0 -0.28468003,-0.0855 -0.32254003,0.2342 -0.0182,0.13182 0.0294,0.24401 0.1809,0.36601 0.0294,0.021 0.0813,0.0393 0.12061003,0.0393 0.57356,0.0463 1.23828,-0.94379 1.67021,-1.68423 0.19492,-0.34078 0.27204997,-0.44876 0.36320997,-0.44876 0.0421,0 0.20194,-0.021 0.37443,0.29169 0.23279,0.40809 1.41638,1.58186 2.91691,1.25932 0.0603,-0.14725 -0.20615,-0.26504 -0.38425,-0.3548 0,0 -0.61704,-0.49643 0.1781,-0.72502 0.79374,-0.1795 1.17798,0.11079 1.85533,-0.43893 0.0294,-0.17951 -0.3534,-0.26926 -0.3534,-0.26926 0,0 -0.47119,-0.28748 0.91013,-0.69557 0.67734,-0.1795 0.67734,-0.29449 0.56515,-0.38144 -0.122,-0.0897 -0.44455,-0.20755 0.0253,-0.5315 z m -168.1542464,5.63749 h 1.69686 v 4.53383 c -0.56655,0.16828 -1.17939,0.34077 -1.8427,0.34077 -2.30969,0 -3.85369,-1.73051 -3.85369,-7.55732 0,-3.82704 0.97885,-7.26282 3.80601,-7.26282 2.06146,0 2.80051,1.75576 3.53395,4.53523 l 1.18219,-0.26925 v -4.39079 c -0.49223,-0.31693 -2.04184,-0.948 -4.76803,-0.948 -4.56609,0 -7.34135,4.48335 -7.34135,8.79841 0,5.58 3.19457,8.26131 7.24599,8.26131 0.98025,0 2.74863,-0.38705 3.75412,-0.72923 l 1.52436,-0.1178 v -6.07502 h -4.93771 v 0.88068"
       style="fill:#ffffff;fill-opacity:1;fill-rule:evenodd;stroke:none;stroke-width:0.35900429" />
    <path
       inkscape:connector-curvature="0"
       id="path3648"
       d="m -145.83621,154.51219 c -0.4179,1.24249 -0.88349,1.65899 -1.8427,1.65899 h -2.42889 c 0.0982,-0.14724 0.0982,-1.78099 0.0982,-14.74722 h 1.83849 v -0.88068 h -6.87436 v 0.88068 h 1.69685 v 14.74722 h -1.76978 v 0.87928 h 10.87951 l 0.36602,-5.26586 c -0.36602,-0.0477 -0.66051,-0.0477 -1.03074,-0.10097 z m 9.28082,1.68424 c -1.56223,0 -3.51992,-1.29298 -3.51992,-7.41288 0,-5.5828 1.43461,-7.35959 3.51992,-7.35959 1.41218,0 3.54938,0.87508 3.54938,7.40867 0,5.87449 -1.74734,7.3638 -3.54938,7.3638 z m 0,-15.9182 c -5.05972,0 -7.27404,4.07106 -7.27404,8.72409 0,5.5856 2.99825,8.33563 7.27404,8.33563 5.06533,0 7.3063,-4.07105 7.3063,-8.72409 0,-5.24062 -2.74021,-8.33563 -7.3063,-8.33563"
       style="fill:#ffffff;fill-opacity:1;fill-rule:evenodd;stroke:none;stroke-width:0.35900429" />
    <path
       inkscape:connector-curvature="0"
       id="path3650"
       d="m -122.42941,156.17118 h -1.67442 c -0.2412,0 -0.2412,-0.22297 -0.2412,-0.55954 v -6.535 h 1.93806 c 1.59589,0 2.08812,1.53419 2.08812,3.60828 0,2.851 -0.95782,3.48626 -2.11056,3.48626 z m -1.91983,-14.74722 h 1.7221 c 1.22566,0 2.18347,0.97605 2.18347,3.63212 0,1.6085 -0.66051,2.99824 -1.83849,2.99824 h -2.06708 z m 3.88454,7.1899 v -0.14724 c 1.8413,-0.5343 3.19318,-2.29006 3.19318,-3.65736 0,-2.65747 -1.84411,-4.26598 -5.33038,-4.26598 h -6.85193 v 0.87648 h 1.74313 v 14.75142 h -1.74313 v 0.87928 h 6.99918 c 3.48627,0 5.54914,-1.78099 5.54914,-4.3403 0,-1.97452 -1.49772,-3.63352 -3.55919,-4.0963 z m 14.41346,5.92077 c -0.34217,1.10226 -0.88489,1.63655 -1.76557,1.63655 h -3.34042 c 0,-0.55954 0,-2.24377 0.0224,-3.75552 0,-0.9508 0.0252,-2.68131 0.0252,-2.94776 h 4.25055 v -1.3673 h -4.25054 v -6.67664 h 2.60138 c 0.91153,0 1.30419,0.34078 1.57625,1.19061 l 0.85825,2.90148 c 0.36742,-0.0463 0.68575,-0.0463 1.07841,-0.0968 v -4.87601 h -11.00007 v 0.88068 h 1.54541 v 14.74722 h -2.11056 v 0.87928 h 12.10518 l 0.17249,-5.09758 -1.07841,-0.19352 z m 40.035986,1.63655 c -0.39126,0 -0.56515,-0.26925 -0.56515,-0.73623 v -14.01099 c 3.51291,0 5.4033,2.19329 5.4033,7.35959 0,5.33738 -1.49773,7.38763 -4.83815,7.38763 z m -28.8101,-6.21385 1.74454,-6.07503 1.74314,6.07503 z m 29.49726,-9.41405 h -11.3465 v 0.88068 c 1.74453,0 2.03763,0.46278 2.03763,1.3631 v 8.21783 c -2.11056,-3.48627 -4.19867,-6.9501 -6.28819,-10.46161 h -4.34591 v 0.78252 c 0.7124,0.22017 1.22706,0.75447 1.64497,1.28877 v 11.92006 c 0,1.41358 -0.73905,1.61131 -1.49772,1.63655 h -0.81057 l -4.8115,-15.6279 h -2.28444 c -0.61704,2.48779 -4.25196,13.7249 -4.25196,13.7249 -0.34498,1.04897 -0.91153,1.92404 -1.98995,1.92404 h -0.0266 v 0.85544 h 5.28549 v -0.87648 h -0.14725 c -1.45144,-0.122 -1.89599,-0.14724 -1.89599,-1.19481 0,-0.31973 0.0252,-0.68295 0.12481,-1.17097 l 0.85965,-2.97581 h 4.00654 l 1.5454,5.34159 h -1.81746 v 0.87928 h 11.052 v -0.85403 c -2.03762,-0.0505 -2.16243,-0.61424 -2.16243,-1.63375 v -10.21339 c 2.55509,4.23933 5.06252,8.48287 7.63865,12.70117 h 1.30279 v -14.2634 c 0,-1.07281 0.66052,-1.34206 1.86515,-1.3631 h 1.69545 v 14.74722 h -1.84271 v 0.87928 h 6.68085 c 4.86339,0 7.68494,-3.82984 7.68494,-8.46184 0.006,-4.70632 -3.21421,-8.04534 -7.90511,-8.04534 z m 34.77433,9.41405 1.74314,-6.07503 1.74734,6.07503 z m 9.94694,-8.53337 h 1.54821 v 14.74722 h -2.60138 l -4.8171,-15.6279 h -2.28165 c -0.61283,2.48779 -4.25055,13.7249 -4.25055,13.7249 -0.31553,0.96623 -0.8288,1.781 -1.75155,1.903 h -1.29158 l -0.88488,-14.74722 h 1.89038 v -0.88068 h -5.18313 l -3.14129,8.77878 c -1.03213,-2.90149 -2.11475,-5.87449 -3.095,-8.77878 h -5.48043 v 0.88068 c 1.69546,0 1.82167,0.26926 1.82167,1.8988 v 0.17249 c -0.14725,2.92532 -0.46559,8.36087 -0.68996,11.43344 -0.0491,0.68295 -0.61283,1.24249 -2.08532,1.31402 v 0.80775 h 5.817 v -0.85403 c -2.08391,-0.0505 -2.40365,-0.75447 -2.40365,-1.26774 0,-0.29449 0.0729,-2.4373 0.14725,-4.48755 0.0996,-2.8496 0.19493,-4.70211 0.29309,-7.6036 v 0.12201 c 1.40236,3.94624 2.90008,7.96961 4.29823,11.91866 l 0.53992,-0.24401 c 1.37711,-3.73028 2.72759,-7.31191 4.12574,-11.01695 l 0.63807,12.55393 h -1.61832 v 0.87928 h 11.31985 v -0.87928 h -0.14724 c -1.45004,-0.122 -1.89038,-0.14724 -1.89038,-1.19481 0,-0.31973 0.0266,-0.68295 0.122,-1.17097 l 0.86246,-2.97581 h 3.99952 l 1.55101,5.34159 h -1.82166 v 0.87928 h 13.11487 v -0.87928 h -1.52015 v -14.74722 h 1.52436 v -0.88068 h -6.65841 z m 16.7526004,13.08823 c -0.41931,1.24249 -0.8905,1.65899 -1.8427,1.65899 h -2.4345 c 0.0996,-0.14724 0.0996,-1.77679 0.0996,-14.74722 h 1.8427 v -0.88068 h -6.8785804 v 0.88068 h 1.69545 v 14.74722 h -1.76977 v 0.87928 h 10.8795104 l 0.37163,-5.26586 c -0.37163,-0.0547 -0.66472,-0.0547 -1.03214,-0.10097 z M -188.15384,141.42396 h 1.69686 v -0.88068 h -6.70328 v 0.88068 h 1.6674 v 6.74816 h -5.03307 v -6.74816 h 1.69265 v -0.88068 h -20.40855 l -0.17249,4.92649 c 0.39266,0.021 0.7124,0.0968 1.10506,0.12201 l 0.86245,-3.12025 c 0.24681,-0.90172 0.53991,-1.04757 1.52436,-1.04757 h 1.71649 v 14.74722 h -2.30828 v 0.87928 h 7.98364 v -0.87928 h -2.33493 v -14.74722 h 1.76978 c 1.05317,0 1.22566,0.21456 1.47107,1.04757 l 0.85825,3.12025 c 0.39406,-0.0252 0.7124,-0.10097 1.10506,-0.12201 v -4.04581 h 1.79642 v 14.74722 h -1.89038 v 0.87928 h 6.92205 v -0.87928 h -1.69265 v -6.72712 h 5.03307 v 6.72712 h -1.6674 v 0.87928 h 6.71309 v -0.87928 h -1.70667 v -14.74722"
       style="fill:#ffffff;fill-opacity:1;fill-rule:evenodd;stroke:none;stroke-width:0.35900429" />
    <path
       inkscape:connector-curvature="0"
       id="path3652"
       d="m -175.69947,154.53463 c -0.34498,1.10226 -0.88489,1.63655 -1.76838,1.63655 h -3.34042 c 0,-0.55954 0,-2.24377 0.0266,-3.75552 0,-0.9508 0.0252,-2.68131 0.0252,-2.94776 h 4.24635 v -1.3673 h -4.24632 v -6.67664 h 2.60138 c 0.90733,0 1.29999,0.34078 1.57065,1.19061 l 0.85964,2.90148 c 0.37163,-0.0463 0.68997,-0.0463 1.08263,-0.0968 v -4.87601 h -11.00433 v 0.88068 h 1.5454 v 14.74722 h -1.55662 v 0.87928 h 11.55545 l 0.17249,-5.09758 -1.08262,-0.19352 -0.68715,2.77527"
       style="fill:#ffffff;fill-opacity:1;fill-rule:evenodd;stroke:none;stroke-width:0.35900429" />
  </g>
</svg>
