<svg version="1.1" id="Layer_1" xmlns="http://www.w3.org/2000/svg" xmlns:xlink="http://www.w3.org/1999/xlink" x="0px" y="0px" viewBox="0 0 111.1 31.5" style="enable-background:new 0 0 111.1 31.5;" xml:space="preserve">
 <style type="text/css">
  .st0{fill:#FFFFFF;}
 </style>
 <g>
  <path class="st0" d="M110.9,9.8l-0.2,0.7l-1.4,0.4c-0.3,0.1-0.6,0.3-0.8,0.6l-6.7,8.4l-2.5,8.2c-0.1,0.4,0,0.7,0.3,0.8l1.7,0.4
		l-0.2,0.7h-8.7l0.2-0.7l1.6-0.4c0.4-0.1,0.8-0.4,0.8-0.9l2.5-8.4l-2.2-8.2c-0.1-0.4-0.2-0.7-0.6-0.8l-1-0.3l0.2-0.7h7.4l-0.2,0.7
		l-1.2,0.4c-0.4,0.1-0.5,0.4-0.4,0.8l1.8,6.9l5.2-7c0.1-0.1,0.1-0.2,0.2-0.4c0-0.2-0.1-0.3-0.3-0.3l-1.4-0.4l0.2-0.7L110.9,9.8z
		 M110.9,9.8">
  </path>
  <g>
   <path class="st0" d="M93.7,14.5h-1l-0.9-2.6c-0.1-0.4-0.5-0.7-0.9-0.6h-2.2l-5.1,17c-0.1,0.4,0,0.7,0.4,0.8l1.4,0.4l-0.2,0.7h-8.5
			l0.2-0.7l1.5-0.4c0.7-0.2,0.8-0.4,1-0.9l5-16.9H82c-0.4,0-0.7,0.2-0.9,0.6l-1.8,2.5h-1l1.6-4.9h0.6c0.1,0.3,0.4,0.5,0.8,0.5h10.6
			c0.4,0.1,0.8-0.1,1-0.5h0.7L93.7,14.5z M78,14.2h-1l-0.9-2.5c-0.1-0.3-0.4-0.5-0.8-0.5h-4.1L69,18.9h3.8c0.4,0,0.6-0.2,0.9-0.6
			l1.1-1.5h1l-1.8,6.1h-1l0-2.2c0-0.4-0.2-0.5-0.6-0.5h-3.8L66,28.7h5.6c0.6,0.1,1.1-0.2,1.4-0.6l2.2-2.8h1.1L74,30.7h-0.7
			c-0.2-0.4-0.5-0.5-1.2-0.5H59.4l0.2-0.7l1.5-0.4c0.4-0.1,0.7-0.4,0.8-0.9l4.9-16.5c0.1-0.2,0-0.5-0.2-0.7l-1.4-0.4l0.2-0.7h11
			c0.4,0,0.7-0.2,0.9-0.5h0.6L78,14.2z M78,14.2">
   </path>
   <path class="st0" d="M110.7,4.5c-9.9,2.1-20,3.2-30.2,3.2c-24,0-40.9-3.3-48-5l-30,28.5l-2.4,0.3L8.9,4.6C6.2,5.7,3.4,6.4,0.6,6.8
			c-0.7,0.1-0.7-0.3-0.4-0.5c1.9-0.9,3.3-2.6,4-4.6c4.3,1.1,7.6,0.2,11.5-1.2l-8,22.6L29,0c12.8,2.7,25.9,4,39,4.1
			c10.4,0,19.4-1.6,24.1-3.5c6.6,3.9,14.1,3.6,18.4,3.3C111.2,3.8,111.3,4.4,110.7,4.5">
   </path>
  </g>
  <path class="st0" d="M64.4,9.8l-0.2,0.7L62.6,11c-0.3,0.1-0.5,0.4-0.6,0.7l-4.9,16.4c-0.1,0.5-0.3,0.8,0.4,1l1.2,0.4l-0.2,0.7h-7.8
		l0.2-0.7l1.1-0.4c0.6-0.2,0.8-0.4,1-0.9l4.9-16.5c0.1-0.4,0-0.6-0.3-0.7l-1.3-0.4l0.2-0.7H64.4z M52.8,14.9c0,3.1-2.4,5.8-6.4,5.6
		c-0.8,0-1.5-0.1-2.3-0.4c0,3.8,1.2,7.6,3.4,7.6c1.4,0,1.8-1.2,2-2.1c0-0.2,0.2-0.3,0.4-0.1c0.6,0.6,1,1.5,1,2.4
		c0,2.3-1.5,3.3-3.7,3.3c-5.6,0-5.8-8-4.9-13c0.1-0.3,0.2-0.3,0.4-0.2c0.8,0.5,1.7,0.7,2.7,0.7c1.8,0,3.5-1.4,3.5-4
		c0-2.6-2.1-4.2-5.3-4.2l-5.2,17.6c0,0.1-0.1,0.3-0.1,0.4c0,0.2,0.1,0.4,0.4,0.4l1.5,0.4l-0.2,0.7h-7.8l0.2-0.7l1.2-0.4
		c0.4-0.1,0.5-0.3,0.7-0.9l5.2-17.6c-2.2,0.5-3.3,1.3-3.3,2.6c0,0.5,0.1,1,0.4,1.4c0.1,0.1,0.1,0.2,0.1,0.4c0,0.3-0.3,0.5-1,0.5
		c-1.3,0.1-2.4-1-2.2-2.3c0-1,0.6-4.3,9.2-4.3C49.6,8.8,52.8,11.2,52.8,14.9">
  </path>
  <path class="st0" d="M27.5,13.4l-8.1,10h7.2L27.5,13.4z M31.7,29.4l-0.2,0.7H24l0.2-0.7l1.3-0.4c0.3-0.1,0.6-0.4,0.6-0.8l0.3-3.4
		h-8.3l-2.7,3.3c-0.1,0.1-0.2,0.3-0.3,0.5c0,0.2,0.1,0.3,0.3,0.4l1.3,0.4l-0.2,0.7h-6.2l0.3-0.7l1.3-0.3c0.5-0.2,0.9-0.5,1.3-0.9
		L29.9,8.5l1.7-0.3L30,28.3c0,0.4,0,0.7,0.5,0.8L31.7,29.4z M31.7,29.4">
  </path>
 </g>
</svg>